<svg width="202" height="85" viewBox="0 0 202 85" fill="none" xmlns="http://www.w3.org/2000/svg">
<path d="M61.6255 18.0163C23.5039 18.0163 4.91563 24.8984 0.386719 28.3395C3.53727 27.3469 6.49091 25.2802 20.4715 24.1705C34.452 23.0608 117.548 21.7882 121.092 21.5897C123.928 21.4309 143.802 16.3619 153.385 13.8473C144.524 13.4503 136.648 16.2296 128.772 17.0237C122.47 17.659 88.7333 17.5531 72.6524 17.4207C83.0492 10.4328 93.7874 6.43586 97.8568 5.3109C111.089 2.76982 136.32 4.25212 147.281 5.3109C133.419 1.81692 112.756 0.94344 104.158 0.94345C90.453 0.30818 70.0926 12.0607 61.6255 18.0163Z" fill="#FF6915"/>
<path d="M124.636 28.1409C133.104 21.9867 159.411 10.7901 196.902 15.237C182.987 16.0973 149.053 19.8824 124.636 28.1409Z" fill="#FF6915"/>
<path d="M61.6255 18.0163C23.5039 18.0163 4.91563 24.8984 0.386719 28.3395C3.53727 27.3469 6.49091 25.2802 20.4715 24.1705C34.452 23.0608 117.548 21.7882 121.092 21.5897C123.928 21.4309 143.802 16.3619 153.385 13.8473C144.524 13.4503 136.648 16.2296 128.772 17.0237C122.47 17.659 88.7333 17.5531 72.6524 17.4207C83.0492 10.4328 93.7874 6.43586 97.8568 5.3109C111.089 2.76982 136.32 4.25212 147.281 5.3109C133.419 1.81692 112.756 0.94344 104.158 0.94345C90.453 0.30818 70.0926 12.0607 61.6255 18.0163Z" stroke="#FF6915"/>
<path d="M124.636 28.1409C133.104 21.9867 159.411 10.7901 196.902 15.237C182.987 16.0973 149.053 19.8824 124.636 28.1409Z" stroke="#FF6915"/>
<path d="M201.858 44.167C162.571 64.087 65.8097 41.6525 -0.000839132 51.4195C79.3648 35.9716 116.475 61.9074 201.858 44.167Z" fill="#FF6915"/>
<path d="M0 40.9789L1.8883 31.8286H4.07333L2.18503 40.9789H0ZM2.30642 37.2795L2.6571 35.5279H5.96162L5.61094 37.2795H2.30642ZM6.25836 40.9789L4.22169 36.5606L6.04255 35.5802L8.60524 40.9789H6.25836ZM6.0965 36.626L3.9924 36.3907L7.99829 31.8286H10.4531L6.0965 36.626Z" fill="black"/>
<path d="M9.66804 40.9789L11.5563 31.8286H13.7144L12.46 37.7893L18.1923 31.8286H20.2695L18.3812 40.9789H16.2231L17.491 35.0312L11.7452 40.9789H9.66804Z" fill="black"/>
<path d="M22.7686 40.9789L24.3737 33.0704L24.7648 33.5541H21.2985L21.6491 31.8286H29.8362L29.4856 33.5541H25.9383L26.5317 33.0704L24.9267 40.9789H22.7686Z" fill="black"/>
<path d="M27.7802 40.9789L33.8767 31.8286H36.0482L38.3681 40.9789H36.1831L34.3488 32.8743H35.212L30.1136 40.9789H27.7802ZM30.3024 39.0181L31.1926 37.4103H36.0617L36.318 39.0181H30.3024Z" fill="black"/>
<path d="M39.6337 40.9789L41.522 31.8286H43.68L42.4257 37.7893L48.158 31.8286H50.2351L48.3468 40.9789H46.1888L47.4566 35.0312L41.7108 40.9789H39.6337ZM45.9865 31.2665C45.1412 31.2665 44.5208 31.0966 44.1251 30.7567C43.7385 30.4168 43.5946 29.9157 43.6935 29.2534H45.0828C45.0378 29.5671 45.1053 29.8112 45.2851 29.9854C45.4649 30.1597 45.7347 30.2469 46.0944 30.2469C46.445 30.2469 46.7328 30.1641 46.9576 29.9985C47.1914 29.8329 47.3397 29.5846 47.4027 29.2534H48.8189C48.702 29.9419 48.4098 30.4517 47.9422 30.7828C47.4746 31.1053 46.8227 31.2665 45.9865 31.2665Z" fill="black"/>
<path d="M55.6342 41.1357C54.672 41.1357 53.8403 40.9702 53.1389 40.639C52.4465 40.2991 51.9115 39.8329 51.5339 39.2403C51.1562 38.639 50.9674 37.9462 50.9674 37.1619C50.9674 36.3863 51.1067 35.663 51.3855 34.992C51.6732 34.3209 52.0734 33.7414 52.5859 33.2534C53.1074 32.7567 53.7234 32.3689 54.4337 32.09C55.1531 31.8111 55.9534 31.6717 56.8346 31.6717C57.6798 31.6717 58.4261 31.8111 59.0736 32.09C59.721 32.3689 60.211 32.7698 60.5437 33.2926L58.9656 34.5475C58.7229 34.1989 58.4127 33.9331 58.035 33.7501C57.6573 33.5671 57.2077 33.4756 56.6862 33.4756C56.1557 33.4756 55.6746 33.5671 55.243 33.7501C54.8114 33.9244 54.4382 34.1772 54.1235 34.5083C53.8178 34.8307 53.584 35.2098 53.4221 35.6456C53.2603 36.0813 53.1794 36.5432 53.1794 37.0312C53.1794 37.4931 53.2828 37.8983 53.4896 38.2469C53.6964 38.5867 53.9976 38.8525 54.3933 39.0442C54.7889 39.236 55.2655 39.3318 55.823 39.3318C56.3085 39.3318 56.7626 39.249 57.1853 39.0835C57.6079 38.9092 57.99 38.639 58.3317 38.273L59.6266 39.5541C59.132 40.1118 58.543 40.517 57.8596 40.7697C57.1853 41.0137 56.4434 41.1357 55.6342 41.1357Z" fill="black"/>
<path d="M60.7084 40.9789L62.5967 31.8286H64.7818L62.8935 40.9789H60.7084ZM63.0148 37.2795L63.3655 35.5279H66.67L66.3194 37.2795H63.0148ZM66.9668 40.9789L64.9301 36.5606L66.751 35.5802L69.3137 40.9789H66.9668ZM66.8049 36.626L64.7008 36.3907L68.7067 31.8286H71.1615L66.8049 36.626Z" fill="black"/>
<path d="M70.3765 40.9789L72.2648 31.8286H74.4228L73.1684 37.7893L78.9008 31.8286H80.9779L79.0896 40.9789H76.9315L78.1994 35.0312L72.4536 40.9789H70.3765Z" fill="black"/>
<path d="M84.5831 35.5148H89.1285L88.7913 37.1619H84.2459L84.5831 35.5148ZM83.9626 39.2795H89.115L88.7508 40.9789H81.4404L83.3287 31.8286H90.4638L90.0996 33.5279H85.1495L83.9626 39.2795Z" fill="black"/>
<path d="M93.27 40.9789L99.3665 31.8286H101.538L103.858 40.9789H101.673L99.8385 32.8743H100.702L95.6033 40.9789H93.27ZM95.7922 39.0181L96.6824 37.4103H101.551L101.808 39.0181H95.7922Z" fill="black"/>
<path d="M105.056 40.9789L106.944 31.8286H111.503C112.528 31.8286 113.311 32.0072 113.85 32.3645C114.399 32.7218 114.673 33.2403 114.673 33.9201C114.673 34.4952 114.515 34.9789 114.201 35.3711C113.895 35.7632 113.486 36.0595 112.973 36.2599C112.461 36.4604 111.903 36.5606 111.301 36.5606L111.652 36.0377C112.443 36.0377 113.072 36.2164 113.54 36.5737C114.016 36.9222 114.255 37.4277 114.255 38.09C114.255 38.7349 114.07 39.2752 113.702 39.7109C113.342 40.1379 112.843 40.456 112.205 40.6652C111.566 40.8743 110.833 40.9789 110.006 40.9789H105.056ZM107.565 39.3841H110.141C110.743 39.3841 111.215 39.2752 111.557 39.0573C111.908 38.8307 112.083 38.4996 112.083 38.0639C112.083 37.724 111.953 37.4843 111.692 37.3449C111.44 37.1968 111.099 37.1227 110.667 37.1227H107.781L108.104 35.5802H110.559C110.937 35.5802 111.26 35.5323 111.53 35.4364C111.809 35.3406 112.02 35.1968 112.164 35.005C112.308 34.8046 112.38 34.565 112.38 34.2861C112.38 33.9811 112.259 33.7632 112.016 33.6325C111.773 33.4931 111.431 33.4233 110.991 33.4233H108.779L107.565 39.3841Z" fill="black"/>
<path d="M117.328 40.9789L118.933 33.0704L119.325 33.5541H115.858L116.209 31.8286H124.396L124.045 33.5541H120.498L121.091 33.0704L119.486 40.9789H117.328Z" fill="black"/>
<path d="M128.617 41.1357C127.664 41.1357 126.841 40.9702 126.149 40.639C125.465 40.2991 124.939 39.8329 124.571 39.2403C124.202 38.639 124.018 37.9462 124.018 37.1619C124.018 36.3776 124.157 35.6543 124.436 34.992C124.715 34.3209 125.11 33.7414 125.623 33.2534C126.144 32.7567 126.76 32.3689 127.471 32.09C128.19 31.8111 128.986 31.6717 129.858 31.6717C130.811 31.6717 131.629 31.8416 132.313 32.1815C133.005 32.5127 133.536 32.9789 133.904 33.5802C134.273 34.1728 134.457 34.8613 134.457 35.6456C134.457 36.4299 134.318 37.1575 134.039 37.8286C133.76 38.4909 133.36 39.0704 132.839 39.5671C132.326 40.0551 131.71 40.4386 130.991 40.7174C130.281 40.9963 129.489 41.1357 128.617 41.1357ZM128.806 39.3318C129.336 39.3318 129.813 39.2403 130.236 39.0573C130.667 38.8656 131.031 38.6042 131.328 38.273C131.625 37.9419 131.85 37.5628 132.002 37.1358C132.164 36.7 132.245 36.2425 132.245 35.7632C132.245 35.3101 132.146 34.9135 131.949 34.5737C131.751 34.2251 131.458 33.9549 131.072 33.7632C130.694 33.5715 130.227 33.4756 129.669 33.4756C129.139 33.4756 128.662 33.5715 128.239 33.7632C127.817 33.9462 127.453 34.2033 127.147 34.5345C126.85 34.8656 126.621 35.249 126.459 35.6848C126.306 36.1118 126.23 36.565 126.23 37.0443C126.23 37.4974 126.329 37.8983 126.526 38.2469C126.733 38.5867 127.025 38.8525 127.403 39.0442C127.79 39.236 128.257 39.3318 128.806 39.3318Z" fill="black"/>
<path d="M135.194 40.9789L137.083 31.8286H138.863L141.547 38.3122L140.603 38.2992L145.823 31.8286H147.698L145.823 40.9789H143.786L145.041 34.8482H145.445L141.291 40.0116H140.306L138.094 34.8351L138.486 34.8743L137.231 40.9789H135.194Z" fill="black"/>
<path d="M153.037 41.1357C152.084 41.1357 151.262 40.9702 150.569 40.639C149.886 40.2991 149.36 39.8329 148.991 39.2403C148.622 38.639 148.438 37.9462 148.438 37.1619C148.438 36.3776 148.577 35.6543 148.856 34.992C149.135 34.3209 149.531 33.7414 150.043 33.2534C150.565 32.7567 151.181 32.3689 151.891 32.09C152.61 31.8111 153.406 31.6717 154.278 31.6717C155.231 31.6717 156.05 31.8416 156.733 32.1815C157.425 32.5127 157.956 32.9789 158.325 33.5802C158.693 34.1728 158.878 34.8613 158.878 35.6456C158.878 36.4299 158.738 37.1575 158.46 37.8286C158.181 38.4909 157.781 39.0704 157.259 39.5671C156.747 40.0551 156.131 40.4386 155.411 40.7174C154.701 40.9963 153.91 41.1357 153.037 41.1357ZM153.226 39.3318C153.757 39.3318 154.233 39.2403 154.656 39.0573C155.088 38.8656 155.452 38.6042 155.748 38.273C156.045 37.9419 156.27 37.5628 156.423 37.1358C156.585 36.7 156.666 36.2425 156.666 35.7632C156.666 35.3101 156.567 34.9135 156.369 34.5737C156.171 34.2251 155.879 33.9549 155.492 33.7632C155.115 33.5715 154.647 33.4756 154.089 33.4756C153.559 33.4756 153.082 33.5715 152.66 33.7632C152.237 33.9462 151.873 34.2033 151.567 34.5345C151.27 34.8656 151.041 35.249 150.879 35.6848C150.726 36.1118 150.65 36.565 150.65 37.0443C150.65 37.4974 150.749 37.8983 150.947 38.2469C151.154 38.5867 151.446 38.8525 151.823 39.0442C152.21 39.236 152.678 39.3318 153.226 39.3318Z" fill="black"/>
<path d="M159.615 40.9789L161.503 31.8286H169.11L168.746 33.5148H163.297L162.919 35.3972H165.549C166.521 35.3972 167.262 35.6063 167.775 36.0246C168.296 36.4342 168.557 37.0312 168.557 37.8155C168.557 38.4691 168.377 39.0312 168.018 39.5018C167.658 39.9724 167.146 40.3384 166.48 40.5998C165.815 40.8525 165.014 40.9789 164.079 40.9789H159.615ZM162.097 39.4103H164.282C164.911 39.4103 165.406 39.2839 165.765 39.0312C166.125 38.7697 166.305 38.4168 166.305 37.9724C166.305 37.6238 166.179 37.3667 165.927 37.2011C165.684 37.0355 165.302 36.9527 164.781 36.9527H162.596L162.097 39.4103Z" fill="black"/>
<path d="M169.612 40.9789L171.5 31.8286H173.659L172.404 37.7893L178.136 31.8286H180.214L178.325 40.9789H176.167L177.435 35.0312L171.689 40.9789H169.612Z" fill="black"/>
<path d="M180.705 41.1357C180.516 41.1357 180.336 41.1227 180.165 41.0965C179.994 41.0704 179.814 41.0355 179.626 40.992L180.125 39.2142C180.242 39.2403 180.363 39.2534 180.489 39.2534C180.831 39.2534 181.127 39.1358 181.379 38.9005C181.631 38.6652 181.865 38.2774 182.08 37.7371C182.305 37.188 182.525 36.456 182.741 35.541L183.658 31.8286H190.915L189.027 40.9789H186.869L188.501 33.0704L188.892 33.5541H184.724L185.29 33.0443L184.63 35.7632C184.387 36.7741 184.14 37.6238 183.888 38.3122C183.645 38.992 183.371 39.541 183.065 39.9593C182.768 40.3689 182.427 40.6695 182.04 40.8612C181.653 41.0442 181.208 41.1357 180.705 41.1357Z" fill="black"/>
<path d="M191.398 40.9789L193.286 31.8286H195.445L194.19 37.7893L199.922 31.8286H202L200.111 40.9789H197.953L199.221 35.0312L193.475 40.9789H191.398Z" fill="black"/>
</svg>
