<svg width="46" height="46" viewBox="0 0 46 46" fill="none" xmlns="http://www.w3.org/2000/svg">
<rect width="46" height="46" fill="#272727"/>
<g opacity="0.8">
<path d="M32.9399 18.8771C32.8912 17.8127 32.7221 17.0857 32.4749 16.4497C32.2239 15.7825 31.8303 15.1781 31.3215 14.6785C30.8221 14.1697 30.2176 13.7759 29.5503 13.5248C28.9142 13.2777 28.1874 13.1088 27.1229 13.0604C26.0565 13.0116 25.7158 13 23 13C20.2842 13 19.9435 13.0116 18.8771 13.0601C17.8126 13.1088 17.0858 13.2779 16.4497 13.5251C15.7824 13.7761 15.178 14.1697 14.6785 14.6785C14.1697 15.1779 13.7759 15.7823 13.5247 16.4496C13.2777 17.0857 13.1088 17.8127 13.0604 18.877C13.0116 19.9436 13 20.2841 13 22.9999C13 25.7159 13.0116 26.0566 13.0604 27.123C13.1089 28.1873 13.278 28.9143 13.5252 29.5504C13.7762 30.2175 14.1699 30.8221 14.6786 31.3215C15.178 31.8303 15.7826 32.2239 16.4499 32.4749C17.0858 32.7223 17.8128 32.8912 18.8772 32.9399C19.9438 32.9886 20.2844 33 23.0002 33C25.7159 33 26.0566 32.9886 27.1231 32.9399C28.1875 32.8912 28.9143 32.7223 29.5504 32.4749C30.8937 31.9555 31.9555 30.8937 32.4749 29.5504C32.7223 28.9143 32.8912 28.1873 32.9399 27.123C32.9884 26.0564 33 25.7159 33 23.0001C33 20.2841 32.9884 19.9436 32.9399 18.8771ZM31.1398 27.0411C31.0954 28.0161 30.9324 28.5456 30.7956 28.8979C30.4591 29.7701 29.7699 30.4594 28.8977 30.7959C28.5454 30.9327 28.0159 31.0957 27.0408 31.1401C25.9866 31.1883 25.6703 31.1984 23 31.1984C20.3296 31.1984 20.0134 31.1883 18.959 31.1401C17.9841 31.0957 17.4547 30.9327 17.1022 30.7959C16.6679 30.6355 16.275 30.3799 15.9524 30.0477C15.6202 29.7251 15.3647 29.3324 15.2043 28.8979C15.0674 28.5456 14.9044 28.0161 14.86 27.0411C14.812 25.9867 14.8018 25.6704 14.8018 23.0002C14.8018 20.3299 14.812 20.0138 14.86 18.9592C14.9046 17.9842 15.0674 17.4547 15.2043 17.1024C15.3647 16.6679 15.6204 16.275 15.9524 15.9524C16.275 15.6203 16.6679 15.3647 17.1023 15.2045C17.4547 15.0674 17.9841 14.9046 18.9592 14.8601C20.0135 14.812 20.3299 14.8018 23 14.8018C25.6701 14.8018 25.9863 14.812 27.0408 14.8602C28.0159 14.9046 28.5452 15.0676 28.8977 15.2045C29.3319 15.3648 29.7249 15.6204 30.0474 15.9524C30.3796 16.275 30.6352 16.6679 30.7954 17.1024C30.9324 17.4547 31.0954 17.9842 31.1398 18.9592C31.1879 20.0136 31.1981 20.3299 31.1981 23.0001C31.1981 25.6704 31.188 25.9865 31.1398 27.0411Z" fill="white"/>
<path d="M22.9998 17.8648C20.1639 17.8648 17.8648 20.1641 17.8648 23.0001C17.8648 25.8361 20.1639 28.1352 22.9998 28.1352C25.836 28.1352 28.135 25.8361 28.135 23.0001C28.135 20.1641 25.836 17.8648 22.9998 17.8648ZM22.9998 26.3334C21.159 26.3332 19.6666 24.8409 19.6667 22.9999C19.6667 21.1591 21.159 19.6666 23 19.6666C24.841 19.6668 26.3333 21.1591 26.3333 22.9999C26.3333 24.8409 24.8408 26.3334 22.9998 26.3334Z" fill="white"/>
<path d="M29.5379 17.6621C29.5379 18.3247 29.0007 18.862 28.338 18.862C27.6751 18.862 27.1379 18.3247 27.1379 17.6621C27.1379 16.9992 27.6751 16.4619 28.338 16.4619C29.0007 16.4619 29.5379 16.9992 29.5379 17.6621Z" fill="white"/>
</g>
</svg>
