<svg width="24" height="30" viewBox="0 0 24 30" fill="none" xmlns="http://www.w3.org/2000/svg">
<path d="M5.23857 0.571533H1.41151C0.943694 0.571533 0.564453 0.95529 0.564453 1.42868V6.96222C0.564453 7.43561 0.943694 7.81937 1.41151 7.81937H5.23857C5.70638 7.81937 6.08563 7.43561 6.08563 6.96222V1.42868C6.08563 0.95529 5.70638 0.571533 5.23857 0.571533Z" stroke="#FF6915" stroke-width="0.8"/>
<path d="M22.5882 0.571411H18.7611C18.2933 0.571411 17.9141 0.955167 17.9141 1.42855V6.9621C17.9141 7.43549 18.2933 7.81925 18.7611 7.81925H22.5882C23.056 7.81925 23.4352 7.43549 23.4352 6.9621V1.42855C23.4352 0.955167 23.056 0.571411 22.5882 0.571411Z" stroke="#FF6915" stroke-width="0.8"/>
<path d="M22.5882 20.8383H18.7611C18.2933 20.8383 17.9141 21.222 17.9141 21.6954V27.2289C17.9141 27.7023 18.2933 28.0861 18.7611 28.0861H22.5882C23.056 28.0861 23.4352 27.7023 23.4352 27.2289V21.6954C23.4352 21.222 23.056 20.8383 22.5882 20.8383Z" stroke="#FF6915" stroke-width="0.8"/>
<path d="M5.3831 20.8384H1.55604C1.08823 20.8384 0.708984 21.2221 0.708984 21.6955V27.2291C0.708984 27.7025 1.08823 28.0862 1.55604 28.0862H5.3831C5.85092 28.0862 6.23016 27.7025 6.23016 27.2291V21.6955C6.23016 21.2221 5.85092 20.8384 5.3831 20.8384Z" stroke="#FF6915" stroke-width="0.8"/>
<path d="M14.168 3.55933H17.3487" stroke="#FF6915" stroke-width="0.8"/>
<path d="M6.65063 3.55945H9.83134" stroke="#FF6915" stroke-width="0.8"/>
<path d="M6.79517 23.9553H17.3493" stroke="#FF6915" stroke-width="0.8"/>
<path d="M12.0734 5.76323C12.9964 5.76323 13.7446 5.00614 13.7446 4.07223C13.7446 3.13831 12.9964 2.38123 12.0734 2.38123C11.1505 2.38123 10.4023 3.13831 10.4023 4.07223C10.4023 5.00614 11.1505 5.76323 12.0734 5.76323Z" stroke="#FF6915" stroke-width="0.8"/>
<path d="M12.4883 6.33472V22.021" stroke="#FF6915" stroke-width="0.8"/>
<path d="M13.4155 22.5925H10.4344C10.0877 22.5925 9.80664 22.8769 9.80664 23.2277C9.80664 23.5785 10.0877 23.8629 10.4344 23.8629H13.4155C13.7621 23.8629 14.0432 23.5785 14.0432 23.2277C14.0432 22.8769 13.7621 22.5925 13.4155 22.5925Z" stroke="#FF6915" stroke-width="0.8"/>
</svg>
