<svg width="19" height="30" viewBox="0 0 19 30" fill="none" xmlns="http://www.w3.org/2000/svg">
<g clip-path="url(#clip0_5501_6775)">
<path d="M17.7058 19.0393C17.0075 18.3047 16.0841 17.8743 15.0931 17.8163C14.6843 17.5472 14.2073 17.3758 13.6914 17.3343C13.3054 17.0248 12.821 16.8398 12.2952 16.8398H12.0266V10.2781C13.6835 9.35135 14.8108 7.54326 14.8108 5.46916C14.8108 4.18654 14.3706 2.93942 13.5713 1.95774C13.4198 1.77171 13.1506 1.74733 12.9701 1.90331C12.7895 2.05923 12.7659 2.33643 12.9173 2.52241C13.5879 3.34619 13.9572 4.39273 13.9572 5.46922C13.9572 7.99995 11.9575 10.0589 9.49965 10.0589C7.0417 10.0589 5.04202 7.99995 5.04202 5.46922C5.04202 2.93807 7.0417 0.878909 9.49965 0.878909C10.2831 0.878909 11.0538 1.09114 11.7283 1.49257C11.9323 1.61403 12.1934 1.54213 12.3113 1.33202C12.4293 1.1219 12.3594 0.853069 12.1554 0.731604C11.3512 0.253008 10.4328 0 9.49965 0C6.57107 0 4.18851 2.45345 4.18851 5.46916C4.18851 7.54326 5.31583 9.35135 6.97268 10.2781V16.8399H6.70409C6.17827 16.8399 5.69388 17.0249 5.30797 17.3343C4.79206 17.3759 4.315 17.5473 3.90622 17.8164C2.91523 17.8744 1.99184 18.3047 1.29344 19.0394C0.561403 19.8093 0.158203 20.8269 0.158203 21.9048V25.9043C0.158203 28.1627 1.94245 30.0001 4.13558 30.0001H14.8637C17.0569 30.0001 18.8411 28.1627 18.8411 25.9043V21.9048C18.8411 20.8269 18.4379 19.8093 17.7058 19.0393ZM9.49965 10.9377C10.0841 10.9377 10.6467 10.8398 11.1731 10.6593V19.3254C11.1731 20.2757 10.4224 21.0487 9.49965 21.0487C8.57689 21.0487 7.82618 20.2757 7.82618 19.3254V10.6593C8.35258 10.8398 8.91516 10.9377 9.49965 10.9377ZM6.70409 17.7188H6.97268V19.3254C6.97268 20.7603 8.10626 21.9276 9.49965 21.9276C10.893 21.9276 12.0266 20.7603 12.0266 19.3254V17.7188H12.2952C13.0802 17.7188 13.7189 18.3764 13.7189 19.1848V21.2691C13.7189 22.0773 13.0802 22.7351 12.2952 22.7351H6.70409C5.91909 22.7351 5.28044 22.0773 5.28044 21.2691V19.1848C5.28044 18.3764 5.91909 17.7188 6.70409 17.7188ZM17.9875 25.9043C17.9875 27.6781 16.5862 29.1212 14.8637 29.1212H4.13558C2.41308 29.1212 1.01172 27.6781 1.01172 25.9043V21.9048C1.01172 21.0582 1.32837 20.2589 1.9033 19.6542C2.1861 19.3567 2.5159 19.1229 2.87557 18.9597C2.64296 19.4034 2.51101 19.9126 2.51101 20.4552V23.3995C2.51101 24.741 3.33909 25.9323 4.57156 26.3643C4.61715 26.3803 4.66352 26.3878 4.70909 26.3878C4.88679 26.3878 5.05266 26.2727 5.11308 26.09C5.18899 25.8602 5.06973 25.6106 4.84656 25.5323C3.9601 25.2216 3.36453 24.3646 3.36453 23.3995V20.4552C3.36453 19.5818 3.83799 18.8288 4.54039 18.4548C4.46703 18.6848 4.42687 18.9299 4.42687 19.1848V21.2691C4.42687 22.5619 5.44841 23.614 6.70404 23.614H12.2951C13.5508 23.614 14.5723 22.5619 14.5723 21.2691V19.1848C14.5723 18.9301 14.5322 18.6848 14.4588 18.4548C15.1612 18.8288 15.6347 19.5818 15.6347 20.4552V23.3995C15.6347 24.6411 14.6538 25.6512 13.4479 25.6512H6.40481C6.16912 25.6512 5.97804 25.848 5.97804 26.0907C5.97804 26.3335 6.16912 26.5302 6.40481 26.5302H13.448C15.1245 26.5302 16.4883 25.1258 16.4883 23.3995V20.4552C16.4883 19.9126 16.3563 19.4034 16.1237 18.9597C16.4834 19.1229 16.8132 19.3567 17.096 19.6542C17.671 20.2589 17.9875 21.0582 17.9875 21.9048V25.9043Z" fill="#FF6915"/>
<path d="M11.768 4.00635V5.02951H10.8245V4.00635C10.8245 3.76365 10.6335 3.56689 10.3977 3.56689C10.162 3.56689 9.97099 3.76365 9.97099 4.00635V5.02951H9.02745V4.00635C9.02745 3.76365 8.83639 3.56689 8.6007 3.56689C8.36501 3.56689 8.17395 3.76365 8.17395 4.00635V5.02951H7.23047V4.00635C7.23047 3.76365 7.03939 3.56689 6.80371 3.56689C6.56803 3.56689 6.37695 3.76365 6.37695 4.00635V5.46896C6.37695 5.71166 6.56803 5.90841 6.80371 5.90841H8.17395V6.93159C8.17395 7.17428 8.36501 7.37104 8.6007 7.37104C8.83639 7.37104 9.02745 7.17428 9.02745 6.93159V5.90841H9.97099V6.93159C9.97099 7.17428 10.162 7.37104 10.3977 7.37104C10.6335 7.37104 10.8245 7.17428 10.8245 6.93159V5.90841H11.768V6.93159C11.768 7.17428 11.959 7.37104 12.1947 7.37104C12.4305 7.37104 12.6215 7.17428 12.6215 6.93159V4.00635C12.6215 3.76365 12.4305 3.56689 12.1947 3.56689C11.959 3.56689 11.768 3.76365 11.768 4.00635Z" fill="#FF6915"/>
</g>
<defs>
<clipPath id="clip0_5501_6775">
<rect width="19" height="30.0001" fill="white"/>
</clipPath>
</defs>
</svg>
