<svg width="24" height="30" viewBox="0 0 24 30" fill="none" xmlns="http://www.w3.org/2000/svg">
<path d="M1.6705 6.99992V29.5C1.6705 29.6326 1.72913 29.7598 1.83349 29.8536C1.93786 29.9473 2.07941 30 2.227 30H22.8175C22.9651 30 23.1067 29.9473 23.211 29.8536C23.3154 29.7598 23.374 29.6326 23.374 29.5V1.9999C23.374 1.86729 23.3154 1.74011 23.211 1.64635C23.1067 1.55258 22.9651 1.4999 22.8175 1.4999H8.34851C8.21001 1.49985 8.07647 1.5462 7.97398 1.6299L7.49205 2.0234L5.40295 0.146394C5.29859 0.0526578 5.15707 0 5.0095 0C4.86194 0 4.72042 0.0526578 4.61606 0.146394L0.164052 4.14641C0.11206 4.19287 0.0708007 4.24811 0.0426471 4.30895C0.0144934 4.36979 0 4.43502 0 4.50091C0 4.5668 0.0144934 4.63203 0.0426471 4.69287C0.0708007 4.75371 0.11206 4.80895 0.164052 4.85541L2.01497 6.49992L1.85247 6.63242C1.79547 6.67901 1.74987 6.73574 1.71854 6.799C1.68722 6.86226 1.67086 6.93068 1.6705 6.99992ZM8.56387 2.4999H22.261V29H2.7835V7.22092L8.56387 2.4999ZM2.83915 5.82391L1.34662 4.49991L5.0095 1.2069L6.66787 2.6969L2.83915 5.82391Z" fill="#FF6915"/>
<path d="M7.83337 7.19151C7.87553 7.28286 7.94688 7.36092 8.0384 7.41583C8.12993 7.47074 8.23752 7.50004 8.34758 7.50001H19.4776C19.6252 7.50001 19.7667 7.44734 19.8711 7.35357C19.9755 7.2598 20.0341 7.13262 20.0341 7.00001V4C20.0341 3.86739 19.9755 3.74022 19.8711 3.64645C19.7667 3.55268 19.6252 3.5 19.4776 3.5H11.6866C11.539 3.50003 11.3975 3.55273 11.2931 3.6465L7.95413 6.64651C7.87626 6.71643 7.82322 6.80554 7.80173 6.90255C7.78023 6.99956 7.79124 7.10013 7.83337 7.19151ZM11.917 4.5H18.9211V6.50001H9.69097L11.917 4.5Z" fill="#FF6915"/>
<path d="M20.0351 24.5003V9.50025C20.0351 9.36764 19.9765 9.24046 19.8721 9.14669C19.7678 9.05292 19.6262 9.00024 19.4786 9.00024H5.00963C4.86203 9.00024 4.72048 9.05292 4.61612 9.14669C4.51176 9.24046 4.45312 9.36764 4.45312 9.50025V24.5003C4.45312 24.6329 4.51176 24.7601 4.61612 24.8539C4.72048 24.9476 4.86203 25.0003 5.00963 25.0003H19.4786C19.6262 25.0003 19.7678 24.9476 19.8721 24.8539C19.9765 24.7601 20.0351 24.6329 20.0351 24.5003ZM18.9221 24.0003H5.56613V10.0002H18.9221V24.0003Z" fill="#FF6915"/>
<path d="M10.0169 17.9999C10.7546 17.9991 11.4618 17.7355 11.9834 17.2668C12.5051 16.7981 12.7985 16.1627 12.7994 15.4999C12.7994 13.8409 10.6546 11.8659 10.4103 11.6464C10.306 11.5527 10.1644 11.5 10.0169 11.5C9.86931 11.5 9.72779 11.5527 9.62343 11.6464C9.37913 11.8659 7.23438 13.8409 7.23438 15.4999C7.23526 16.1627 7.5287 16.7981 8.05033 17.2668C8.57196 17.7355 9.27918 17.9991 10.0169 17.9999ZM10.0169 12.7344C10.6941 13.4284 11.6864 14.6344 11.6864 15.4999C11.6864 15.8977 11.5105 16.2793 11.1974 16.5606C10.8843 16.8419 10.4597 16.9999 10.0169 16.9999C9.5741 16.9999 9.14945 16.8419 8.83636 16.5606C8.52327 16.2793 8.34738 15.8977 8.34738 15.4999C8.34738 14.6364 9.34073 13.4294 10.0169 12.7344Z" fill="#FF6915"/>
<path d="M14.4705 21.9999C14.7664 22.0122 15.062 21.9689 15.3383 21.8728C15.6146 21.7766 15.8655 21.6297 16.075 21.4415C16.2845 21.2532 16.448 21.0278 16.555 20.7796C16.662 20.5314 16.7102 20.2658 16.6965 19.9999C16.6965 18.6289 15.0798 16.8729 14.8951 16.6769C14.8412 16.6238 14.7756 16.5815 14.7025 16.5525C14.6294 16.5235 14.5504 16.5085 14.4705 16.5085C14.3906 16.5085 14.3115 16.5235 14.2384 16.5525C14.1653 16.5815 14.0997 16.6238 14.0459 16.6769C13.8611 16.8729 12.2445 18.6289 12.2445 19.9999C12.2308 20.2658 12.279 20.5314 12.386 20.7796C12.493 21.0278 12.6565 21.2532 12.866 21.4415C13.0755 21.6297 13.3264 21.7766 13.6027 21.8728C13.8789 21.9689 14.1745 22.0122 14.4705 21.9999ZM14.4705 17.8184C14.9624 18.4354 15.5835 19.3614 15.5835 19.9999C15.5835 20.2651 15.4662 20.5195 15.2575 20.707C15.0488 20.8945 14.7657 20.9999 14.4705 20.9999C14.1753 20.9999 13.8922 20.8945 13.6835 20.707C13.4747 20.5195 13.3575 20.2651 13.3575 19.9999C13.3575 19.3614 13.9785 18.4354 14.4705 17.8184Z" fill="#FF6915"/>
<path d="M8.51322 3.64663L7.40039 4.64648L8.1874 5.35359L9.30023 4.35374L8.51322 3.64663Z" fill="#FF6915"/>
<path d="M6.28861 5.64663L5.17578 6.64648L5.96279 7.35359L7.07562 6.35374L6.28861 5.64663Z" fill="#FF6915"/>
<path d="M20.036 27H15.584V28H21.149V26H20.036V27Z" fill="#FF6915"/>
<path d="M14.4704 27H13.3574V28H14.4704V27Z" fill="#FF6915"/>
</svg>
