<svg width="40" height="30" viewBox="0 0 40 30" fill="none" xmlns="http://www.w3.org/2000/svg">
<path d="M39.414 18.1C39.7377 18.1 40 17.8377 40 17.514V14.8145C40 13.8022 39.1763 12.9786 38.164 12.9786C37.1517 12.9786 36.3282 13.8022 36.3282 14.8145V15.4636H34.961V13.4394C34.961 12.9519 34.7465 12.4932 34.3725 12.181L27.9143 6.78687C27.6207 6.5414 27.2482 6.40633 26.8655 6.40633H20.8168V4.68758H24.9965C26.0088 4.68758 26.8325 3.86398 26.8325 2.85163C26.8325 1.8393 26.0088 1.01562 24.9965 1.01562H17.482C17.1583 1.01562 16.8962 1.27789 16.8962 1.60156C16.8962 1.92523 17.1583 2.1875 17.482 2.1875H24.9965C25.3627 2.1875 25.6607 2.48538 25.6607 2.85157C25.6607 3.21773 25.3627 3.51563 24.9965 3.51563H13.1216C12.7554 3.51563 12.4575 3.21773 12.4575 2.85157C12.4575 2.48538 12.7554 2.1875 13.1216 2.1875H14.982C15.3057 2.1875 15.568 1.92523 15.568 1.60156C15.568 1.27789 15.3057 1.01562 14.982 1.01562H13.1216C12.1092 1.01562 11.2856 1.83922 11.2856 2.85157C11.2856 3.8639 12.1092 4.6875 13.1216 4.6875H17.3012V6.40625H10.6232C10.294 6.40625 9.97602 6.50407 9.70375 6.68907L5.7568 9.3707C5.30742 9.6761 5.03907 10.1831 5.03907 10.7268V14.4266H3.67187V10.4297C3.67187 9.41735 2.84828 8.59375 1.83593 8.59375C0.823593 8.59375 0 9.41735 0 10.4297V22.3047C0 23.317 0.823593 24.1407 1.83593 24.1407C2.84828 24.1407 3.67187 23.317 3.67187 22.3047V17.9423H5.03907V21.5625C5.03907 22.1875 5.3861 22.7493 5.94468 23.0287L17.5108 28.8115C17.7367 28.9247 17.9897 28.9843 18.2425 28.9843H20C20.3237 28.9843 20.586 28.7222 20.586 28.3985C20.586 28.0748 20.3237 27.8125 20 27.8125H18.2425C18.1708 27.8125 18.099 27.7955 18.035 27.7635L6.46875 21.9805C6.30977 21.901 6.21093 21.7408 6.21093 21.5625V10.7269C6.21093 10.5717 6.28742 10.427 6.41538 10.3401L10.3623 7.65843C10.4395 7.60593 10.5298 7.5782 10.6231 7.5782H26.8655C26.974 7.5782 27.0797 7.61657 27.1632 7.68625L33.6213 13.0805C33.7278 13.1694 33.789 13.3002 33.789 13.4395V27.3455C33.789 27.6032 33.5802 27.8127 33.3237 27.8127H22.506C22.1823 27.8127 21.92 28.075 21.92 28.3987C21.92 28.7223 22.1823 28.9845 22.506 28.9845H33.3238C34.2265 28.9845 34.961 28.2493 34.961 27.3455V26.0407H36.3282V26.6897C36.3282 27.702 37.1517 28.5257 38.164 28.5257C39.1763 28.5257 40 27.702 40 26.6897V20.014C40 19.6903 39.7377 19.4282 39.414 19.4282C39.0903 19.4282 38.8282 19.6903 38.8282 20.014V26.6895C38.8282 27.0557 38.5302 27.3537 38.164 27.3537C37.7978 27.3537 37.5 27.0557 37.5 26.6895V14.8145C37.5 14.4484 37.7978 14.1505 38.164 14.1505C38.5302 14.1505 38.8282 14.4484 38.8282 14.8145V17.514C38.8282 17.8377 39.0903 18.1 39.414 18.1ZM2.5 22.3047C2.5 22.6708 2.20212 22.9688 1.83593 22.9688C1.46976 22.9688 1.17188 22.6708 1.17188 22.3047V10.4297C1.17188 10.0635 1.46976 9.76563 1.83593 9.76563C2.20212 9.76563 2.5 10.0635 2.5 10.4297V22.3047ZM3.67187 16.7705V15.5986H5.03907V16.7705H3.67187ZM18.473 6.40625V4.6875H19.645V6.40625H18.473ZM34.961 24.8687V16.6355H36.3282V24.8687H34.961Z" fill="#FF6915"/>
<path d="M16.7869 22.8872C16.9396 23.0001 17.1171 23.0567 17.2946 23.0567C17.4604 23.0567 17.6266 23.0074 17.7734 22.9084L23.7249 18.8912C23.9322 18.7512 24.0676 18.5284 24.0961 18.2799C24.1246 18.0314 24.0432 17.7837 23.8729 17.6007L22.2491 15.8528L23.4529 12.3242C23.5734 11.9711 23.4532 11.5845 23.1539 11.362C22.8546 11.1392 22.4496 11.1356 22.1464 11.3527L16.5138 15.3823C16.3111 15.5271 16.1822 15.7526 16.1597 16.0007C16.1373 16.2488 16.2239 16.4938 16.3972 16.6726L17.6829 17.9996L16.4774 21.9504C16.3703 22.3014 16.4918 22.6691 16.7869 22.8872ZM17.4946 16.1213L22.0247 12.8803L21.0786 15.6537C20.9769 15.9519 21.0469 16.2806 21.2616 16.5117L22.7624 18.1271L17.8592 21.4366L18.8582 18.1631C18.9491 17.8654 18.8711 17.5419 18.6546 17.3182L17.4946 16.1213Z" fill="#FF6915"/>
</svg>
