<svg width="52" height="52" viewBox="0 0 52 52" fill="none" xmlns="http://www.w3.org/2000/svg">
<rect width="52" height="52" fill="#1E1E1E"/>
<path d="M19 21.7143C19 21.2596 19.1756 20.8236 19.4882 20.5021C19.8007 20.1806 20.2246 20 20.6667 20H32.3333C32.7754 20 33.1993 20.1806 33.5118 20.5021C33.8244 20.8236 34 21.2596 34 21.7143M19 21.7143V30.2857C19 30.7404 19.1756 31.1764 19.4882 31.4979C19.8007 31.8194 20.2246 32 20.6667 32H32.3333C32.7754 32 33.1993 31.8194 33.5118 31.4979C33.8244 31.1764 34 30.7404 34 30.2857V21.7143M19 21.7143L26.5 26.8571L34 21.7143" stroke="white" stroke-width="1.3" stroke-miterlimit="10" stroke-linecap="round" stroke-linejoin="round"/>
</svg>
