<svg width="213" height="66" viewBox="0 0 213 66" fill="none" xmlns="http://www.w3.org/2000/svg">
<g clip-path="url(#clip0_4829_2005)">
<path d="M1.97979 61.7876H110.868L108.888 65.7293H0L1.97979 61.7876Z" fill="white"/>
<path d="M1.97979 0H67.3127L65.3329 3.94177H0L1.97979 0Z" fill="#FF6915"/>
<path d="M1.97979 9.85449H25.7372L23.7574 13.7963H0L1.97979 9.85449Z" fill="#FF6915"/>
<path d="M0 33.7023L2.9425 19.9406H7.24764L6.14174 25.0914L10.8418 19.9406H16.1146L9.61744 26.4479L13.3894 33.7023H8.2943L5.54928 27.8438L4.30514 33.7023H0ZM20.0327 27.313L25.7795 19.9406H29.9661L27.0236 33.7023H22.837L24.4366 26.2514L18.6701 33.7023H14.4834L17.4259 19.9406H21.6126L20.0327 27.313ZM34.6981 23.7153H30.788L31.5976 19.9406H43.7231L42.9134 23.7153H39.0033L36.8704 33.7023H32.5653L34.6981 23.7153ZM45.0657 31.756L44.0191 33.7023H39.5559L47.6133 19.9406H51.8591L54.0315 33.7023H49.5683L49.3511 31.756H45.0657ZM46.5271 28.9251H49.1141L48.6797 24.7965L46.5271 28.9251ZM60.6094 27.313L66.3561 19.9406H70.5428L67.6003 33.7023H63.4136L65.0132 26.2514L59.2467 33.7023H55.0601L58.0026 19.9406H62.1892L60.6094 27.313ZM66.4549 15.8711H69.2394C69.0419 16.8803 68.5351 17.6471 67.7188 18.1713C66.9815 18.6562 65.9019 18.8987 64.48 18.8987C63.2425 18.8987 62.3275 18.7087 61.735 18.3285C61.0636 17.883 60.7279 17.2539 60.7279 16.4412C60.7279 16.2184 60.7476 16.0284 60.7871 15.8711H63.5716C63.4531 16.3299 63.5452 16.6641 63.8481 16.8737C64.0587 17.0179 64.401 17.09 64.875 17.09C65.3226 17.09 65.6781 16.9917 65.9414 16.7951C66.231 16.5722 66.4023 16.2643 66.4549 15.8711ZM80.8043 28.6302H85.1489C84.8067 30.0063 84.155 31.1925 83.1939 32.1885C81.9168 33.4598 80.1856 34.0955 78 34.0955C75.841 34.0955 74.1952 33.5451 73.063 32.4441C71.9308 31.3432 71.3646 29.8228 71.3646 27.8831C71.3646 26.6379 71.5818 25.4584 72.0163 24.3444C72.4508 23.2304 73.0565 22.3064 73.8331 21.5724C75.2419 20.2486 77.1444 19.5868 79.5404 19.5868C81.6337 19.5868 83.2005 20.1045 84.2405 21.1399C84.7409 21.6247 85.0897 22.1688 85.2872 22.7716C85.4979 23.3614 85.5967 24.0757 85.5834 24.9145H81.4165C81.4693 24.4557 81.331 24.0364 81.0018 23.6563C80.6727 23.3287 80.1724 23.1648 79.5009 23.1648C78.7242 23.1648 78.0528 23.4138 77.4866 23.9119C76.9864 24.3574 76.6177 24.9342 76.3807 25.6419C76.1437 26.3496 76.0252 27.0247 76.0252 27.6668C76.0252 28.5581 76.2227 29.2593 76.6177 29.7704C76.9731 30.2816 77.5788 30.5371 78.4345 30.5371C79.0533 30.5371 79.5734 30.3471 79.9946 29.967C80.3765 29.6262 80.6463 29.1806 80.8043 28.6302ZM86.3218 33.7023L89.2644 19.9406H93.5695L92.4636 25.0914L97.1637 19.9406H102.436L95.9393 26.4479L99.7112 33.7023H94.6162L91.8711 27.8438L90.627 33.7023H86.3218ZM106.355 27.313L112.101 19.9406H116.288L113.345 33.7023H109.159L110.758 26.2514L104.992 33.7023H100.805L103.748 19.9406H107.934L106.355 27.313ZM122.896 25.1308H129.038L128.347 28.3746H122.205L121.83 30.0653H129.156L128.386 33.7023H116.754L119.697 19.9406H131.171L130.4 23.5776H123.232L122.896 25.1308Z" fill="white"/>
<mask id="mask0_4829_2005" style="mask-type:luminance" maskUnits="userSpaceOnUse" x="-3" y="37" width="216" height="21">
<path d="M213.001 37.915H-2.82031V57.5746H213.001V37.915Z" fill="white"/>
<path d="M6.16018 52.8198L5.11352 54.7661H0.650391L8.70772 41.0044H12.9536L15.1259 54.7661H10.6628L10.4456 52.8198H6.16018ZM7.62156 49.9888H10.2086L9.77413 45.8603L7.62156 49.9888ZM19.2945 41.0044H26.8976C28.2931 41.0044 29.3069 41.2993 29.9389 41.8891C30.5444 42.4395 30.8473 43.1866 30.8473 44.1303C30.8473 45.087 30.5444 45.8669 29.9389 46.4698C29.4254 46.9809 28.7804 47.3151 28.0035 47.4724L27.9838 47.551C28.5499 47.7214 29.0238 47.9835 29.4057 48.3374C29.9191 48.8092 30.1759 49.4711 30.1759 50.323C30.1759 51.8172 29.6427 52.964 28.5762 53.7635C27.6678 54.4319 26.1208 54.7661 23.9354 54.7661H16.352L19.2945 41.0044ZM22.9282 44.1106L22.4543 46.3125H24.6266C25.219 46.3125 25.6469 46.2076 25.9102 45.9979C26.1867 45.8013 26.3249 45.4934 26.3249 45.0739C26.3249 44.707 26.1933 44.4448 25.93 44.2875C25.7456 44.1696 25.4296 44.1106 24.982 44.1106H22.9282ZM21.8618 49.1631L21.3286 51.6599H23.7971C24.5212 51.6599 25.0215 51.5485 25.298 51.3257C25.6009 51.0767 25.7522 50.7228 25.7522 50.264C25.7522 49.8446 25.6074 49.5432 25.3178 49.3597C25.1072 49.2287 24.7517 49.1631 24.2514 49.1631H21.8618ZM35.9736 44.779H32.0634L32.8731 41.0044H44.9985L44.1889 44.779H40.2787L38.1459 54.7661H33.8407L35.9736 44.779ZM53.2473 40.6309C55.4329 40.6309 57.0982 41.214 58.2436 42.3806C59.3495 43.4815 59.9025 44.956 59.9025 46.804C59.9025 47.9573 59.6788 49.1369 59.231 50.3427C58.7835 51.5353 58.1449 52.5052 57.3154 53.2523C55.9463 54.5105 54.0438 55.1396 51.6082 55.1396C49.3964 55.1396 47.731 54.6154 46.6118 53.5669C45.4402 52.4922 44.8542 50.9652 44.8542 48.9862C44.8542 47.6886 45.1176 46.437 45.6442 45.2312C46.184 44.0254 46.9213 43.049 47.856 42.3019C49.1858 41.1879 50.9829 40.6309 53.2473 40.6309ZM49.5149 48.9665C49.5149 49.6873 49.6861 50.2707 50.0283 50.7162C50.4365 51.2536 51.0552 51.5223 51.8846 51.5223C52.5956 51.5223 53.2013 51.3126 53.7015 50.8932C54.1755 50.4869 54.5573 49.8839 54.8469 49.0845C55.1366 48.2718 55.2814 47.4986 55.2814 46.7646C55.2814 46.0045 55.0971 45.4015 54.7284 44.956C54.3467 44.4841 53.7805 44.2482 53.0301 44.2482C52.2534 44.2482 51.5819 44.5104 51.0157 45.0346C50.5286 45.4671 50.1534 46.0635 49.8901 46.8236C49.64 47.5838 49.5149 48.2981 49.5149 48.9665ZM67.6097 54.7661L66.8 45.6244L66.7013 45.6441L66.563 46.686L64.8449 54.7661H60.9348L63.8773 41.0044H69.7228L70.2955 48.7896L70.1967 49.7332H70.2955L70.6509 48.7896L74.5216 41.0044H80.3671L77.4246 54.7661H73.5144L75.2326 46.686L75.5683 45.6441L75.4695 45.6244L70.7497 54.7661H67.6097ZM89.7833 40.6309C91.9689 40.6309 93.6342 41.214 94.7796 42.3806C95.8855 43.4815 96.4385 44.956 96.4385 46.804C96.4385 47.9573 96.2147 49.1369 95.767 50.3427C95.3194 51.5353 94.6809 52.5052 93.8514 53.2523C92.4823 54.5105 90.5798 55.1396 88.1442 55.1396C85.9323 55.1396 84.267 54.6154 83.1478 53.5669C81.9762 52.4922 81.3902 50.9652 81.3902 48.9862C81.3902 47.6886 81.6536 46.437 82.1802 45.2312C82.72 44.0254 83.4573 43.049 84.392 42.3019C85.7217 41.1879 87.5188 40.6309 89.7833 40.6309ZM86.0508 48.9665C86.0508 49.6873 86.2221 50.2707 86.5643 50.7162C86.9725 51.2536 87.5912 51.5223 88.4206 51.5223C89.1316 51.5223 89.7373 51.3126 90.2375 50.8932C90.7114 50.4869 91.0933 49.8839 91.3829 49.0845C91.6726 48.2718 91.8174 47.4986 91.8174 46.7646C91.8174 46.0045 91.6331 45.4015 91.2644 44.956C90.8827 44.4841 90.3165 44.2482 89.566 44.2482C88.7894 44.2482 88.1179 44.5104 87.5517 45.0346C87.0646 45.4671 86.6894 46.0635 86.4261 46.8236C86.176 47.5838 86.0508 48.2981 86.0508 48.9665ZM103.988 44.3858L103.632 46.0962H106.575C108.168 46.0962 109.339 46.4304 110.09 47.0989C110.788 47.741 111.136 48.6586 111.136 49.8512C111.136 51.555 110.518 52.8657 109.28 53.7831C108.359 54.4385 106.95 54.7661 105.054 54.7661H97.4706L100.413 41.0044H111.986L111.255 44.3858H103.988ZM103 49.0452L102.467 51.5223H104.738C105.383 51.5223 105.844 51.3977 106.12 51.1487C106.397 50.8735 106.535 50.5262 106.535 50.1068C106.535 49.7398 106.397 49.458 106.12 49.2614C105.923 49.1172 105.587 49.0452 105.113 49.0452H103ZM118.164 48.3767L123.911 41.0044H128.097L125.155 54.7661H120.968L122.568 47.3151L116.801 54.7661H112.614L115.557 41.0044H119.744L118.164 48.3767ZM126.944 54.7464L127.714 51.2077C128.083 51.2733 128.386 51.306 128.623 51.306C129.268 51.306 129.775 51.1225 130.143 50.7555C130.512 50.3886 130.861 49.4777 131.19 48.0229L132.79 41.0044H144.105L141.163 54.7661H136.818L138.951 44.779H136.009L134.922 49.4384C134.909 49.4907 134.863 49.6612 134.784 49.9495C134.718 50.2247 134.672 50.4017 134.646 50.4803C134.633 50.5589 134.587 50.7359 134.508 51.0111C134.442 51.2733 134.389 51.4567 134.35 51.5616C134.31 51.6665 134.244 51.8368 134.152 52.0727C134.073 52.2956 133.994 52.4659 133.915 52.5839C133.849 52.7018 133.757 52.8591 133.639 53.0557C133.533 53.2392 133.422 53.3899 133.303 53.5079C133.198 53.6258 133.073 53.7504 132.928 53.8814C132.796 54.0124 132.651 54.1239 132.493 54.2156C131.677 54.7137 130.532 54.9627 129.057 54.9627C128.307 54.9627 127.602 54.8907 126.944 54.7464ZM150.322 48.3767L156.068 41.0044H160.255L157.313 54.7661H153.126L154.726 47.3151L148.959 54.7661H144.772L147.715 41.0044H151.902L150.322 48.3767ZM161.275 54.7661L162.104 50.9128H166.113L165.284 54.7661H161.275ZM172.255 41.0044H179.068C180.741 41.0044 181.959 41.3649 182.722 42.0857C183.459 42.7934 183.828 43.8354 183.828 45.2115C183.828 46.9416 183.314 48.3047 182.287 49.3007C181.919 49.6546 181.511 49.9429 181.063 50.1658C180.628 50.3886 180.149 50.5393 179.621 50.6179C179.108 50.6966 178.7 50.7489 178.397 50.7752C178.108 50.7883 177.706 50.7949 177.192 50.7949H174.467L173.618 54.7661H169.313L172.255 41.0044ZM175.77 44.7201L175.178 47.4921H177.232C177.957 47.4921 178.476 47.3675 178.792 47.1185C179.161 46.8433 179.345 46.4304 179.345 45.88C179.345 45.4344 179.187 45.1132 178.871 44.9166C178.661 44.7856 178.298 44.7201 177.785 44.7201H175.77ZM190.763 47.0595L193.943 41.0044H198.426L191.81 51.5223C191.23 52.4529 190.711 53.1474 190.25 53.6062C189.697 54.1436 189.137 54.5039 188.571 54.6875C188.018 54.8578 187.387 54.943 186.676 54.943C185.622 54.943 184.674 54.7858 183.832 54.4712L184.543 51.1291C184.977 51.3126 185.444 51.4043 185.945 51.4043C186.735 51.4043 187.307 51.1291 187.663 50.5786L185.017 41.0044H189.737L190.763 47.0595ZM206.676 49.6939H211.021C210.678 51.0701 210.027 52.2563 209.066 53.2523C207.789 54.5236 206.057 55.1593 203.872 55.1593C201.713 55.1593 200.068 54.6088 198.935 53.5079C197.802 52.4069 197.237 50.8866 197.237 48.9469C197.237 47.7017 197.454 46.5221 197.888 45.4081C198.323 44.2941 198.928 43.3701 199.705 42.6361C201.114 41.3123 203.016 40.6505 205.412 40.6505C207.506 40.6505 209.073 41.1683 210.113 42.2036C210.613 42.6885 210.962 43.2325 211.159 43.8354C211.369 44.4252 211.468 45.1395 211.456 45.9783H207.289C207.341 45.5195 207.203 45.1002 206.874 44.7201C206.545 44.3924 206.044 44.2286 205.373 44.2286C204.596 44.2286 203.924 44.4775 203.359 44.9756C202.858 45.4212 202.49 45.9979 202.253 46.7057C202.016 47.4134 201.897 48.0884 201.897 48.7306C201.897 49.6219 202.095 50.323 202.49 50.8342C202.845 51.3453 203.45 51.6009 204.307 51.6009C204.926 51.6009 205.445 51.4109 205.867 51.0308C206.249 50.69 206.518 50.2444 206.676 49.6939Z" fill="black"/>
</mask>
<g mask="url(#mask0_4829_2005)">
<path d="M6.15999 52.8198V51.4155H5.31514L4.91639 52.1569L6.15999 52.8198ZM5.11333 54.7661V56.1703H5.95818L6.35692 55.4289L5.11333 54.7661ZM0.650201 54.7661L-0.568495 54.0589L-1.80469 56.1703H0.650201V54.7661ZM8.70753 41.0044V39.6001H7.89698L7.48883 40.2972L8.70753 41.0044ZM12.9534 41.0044L14.3469 40.7864L14.1596 39.6001H12.9534V41.0044ZM15.1257 54.7661V56.1703H16.7753L16.5193 54.5481L15.1257 54.7661ZM10.6626 54.7661L9.26065 54.9211L9.40007 56.1703H10.6626V54.7661ZM10.4454 52.8198L11.8473 52.6647L11.7079 51.4155H10.4454V52.8198ZM7.62137 49.9888L6.36938 49.3418L5.29991 51.393H7.62137V49.9888ZM10.2084 49.9888V51.393H11.7745L11.6113 49.8425L10.2084 49.9888ZM9.77394 45.8603L11.1769 45.7139L10.6872 41.0605L8.52195 45.2133L9.77394 45.8603ZM4.91639 52.1569L3.86973 54.1032L6.35692 55.4289L7.40358 53.4826L4.91639 52.1569ZM5.11333 53.3618H0.650201V56.1703H5.11333V53.3618ZM1.8689 55.4732L9.92622 41.7115L7.48883 40.2972L-0.568495 54.0589L1.8689 55.4732ZM8.70753 42.4086H12.9534V39.6001H8.70753V42.4086ZM11.5599 41.2223L13.7322 54.984L16.5193 54.5481L14.3469 40.7864L11.5599 41.2223ZM15.1257 53.3618H10.6626V56.1703H15.1257V53.3618ZM12.0646 54.611L11.8473 52.6647L9.04342 52.9748L9.26065 54.9211L12.0646 54.611ZM10.4454 51.4155H6.15999V54.224H10.4454V51.4155ZM7.62137 51.393H10.2084V48.5845H7.62137V51.393ZM11.6113 49.8425L11.1769 45.7139L8.37101 46.0066L8.80548 50.1351L11.6113 49.8425ZM8.52195 45.2133L6.36938 49.3418L8.87335 50.6357L11.0259 46.5072L8.52195 45.2133ZM19.2943 41.0044V39.6001H18.1525L17.9146 40.712L19.2943 41.0044ZM29.9387 41.889L28.9738 42.9136L28.9875 42.9261L29.9387 41.889ZM28.0033 47.4724L27.7222 46.0963L26.8506 46.2727L26.6349 47.1318L28.0033 47.4724ZM27.9836 47.551L26.6152 47.2105L26.2892 48.5081L27.5754 48.8951L27.9836 47.551ZM29.4055 48.3374L28.4443 49.3651L28.4487 49.3692L29.4055 48.3374ZM28.5761 53.7634L29.4145 54.8927L29.4247 54.8851L28.5761 53.7634ZM16.3518 54.7661L14.9721 54.4737L14.6093 56.1703H16.3518V54.7661ZM22.928 44.1106V42.7063H21.7877L21.5487 43.8164L22.928 44.1106ZM22.4541 46.3124L21.0748 46.0182L20.7092 47.7167H22.4541V46.3124ZM25.91 45.9979L25.0902 44.8552L25.0589 44.8774L25.0288 44.9013L25.91 45.9979ZM25.9298 44.2875L25.1669 45.4688L25.1854 45.4804L25.204 45.4916L25.9298 44.2875ZM21.8616 49.1631V47.7588H20.7195L20.4819 48.871L21.8616 49.1631ZM21.3284 51.6598L19.9487 51.3678L19.5865 53.0641H21.3284V51.6598ZM25.2978 51.3256L26.1854 52.4172L26.1962 52.4083L25.2978 51.3256ZM25.3176 49.3597L26.0749 48.1749L26.0652 48.1689L25.3176 49.3597ZM19.2943 42.4086H26.8974V39.6001H19.2943V42.4086ZM26.8974 42.4086C28.1427 42.4086 28.7233 42.6799 28.9738 42.9136L30.9034 40.8646C29.89 39.9187 28.4432 39.6001 26.8974 39.6001V42.4086ZM28.9875 42.9261C29.2538 43.168 29.4365 43.5136 29.4365 44.1302H32.2577C32.2577 42.8595 31.8348 41.711 30.8899 40.852L28.9875 42.9261ZM29.4365 44.1302C29.4365 44.7642 29.249 45.1704 28.9413 45.4768L30.9361 47.4627C31.8396 46.5632 32.2577 45.4098 32.2577 44.1302H29.4365ZM28.9413 45.4768C28.6415 45.7752 28.2536 45.9888 27.7222 46.0963L28.2845 48.8484C29.3067 48.6414 30.209 48.1866 30.9361 47.4627L28.9413 45.4768ZM26.6349 47.1318L26.6152 47.2105L29.352 47.8915L29.3718 47.8129L26.6349 47.1318ZM27.5754 48.8951C27.963 49.0118 28.24 49.1759 28.4443 49.3651L30.3667 47.3096C29.8074 46.7911 29.1363 46.431 28.3918 46.2068L27.5754 48.8951ZM28.4487 49.3692C28.6096 49.5171 28.7651 49.7682 28.7651 50.323H31.5863C31.5863 49.174 31.2283 48.1013 30.3623 47.3055L28.4487 49.3692ZM28.7651 50.323C28.7651 51.4389 28.3925 52.1432 27.7274 52.6417L29.4247 54.8851C30.8925 53.7848 31.5863 52.1953 31.5863 50.323H28.7651ZM27.7376 52.6341C27.2117 53.0211 26.0583 53.3618 23.9352 53.3618V56.1703C26.1831 56.1703 28.1235 55.8426 29.4145 54.8927L27.7376 52.6341ZM23.9352 53.3618H16.3518V56.1703H23.9352V53.3618ZM17.7315 55.0584L20.674 41.2967L17.9146 40.712L14.9721 54.4737L17.7315 55.0584ZM21.5487 43.8164L21.0748 46.0182L23.8333 46.6066L24.3073 44.4048L21.5487 43.8164ZM22.4541 47.7167H24.6264V44.9082H22.4541V47.7167ZM24.6264 47.7167C25.3219 47.7167 26.149 47.6059 26.7912 47.0945L25.0288 44.9013C25.0981 44.8463 25.1281 44.8521 25.0545 44.8703C24.9813 44.8882 24.8452 44.9082 24.6264 44.9082V47.7167ZM26.7299 47.1405C27.4668 46.6166 27.7353 45.8247 27.7353 45.0739H24.9141C24.9141 45.1329 24.9043 45.1111 24.9332 45.0466C24.9479 45.0139 24.9697 44.9768 24.9998 44.9403C25.0298 44.9038 25.0616 44.8755 25.0902 44.8552L26.7299 47.1405ZM27.7353 45.0739C27.7353 44.3295 27.4349 43.5489 26.6555 43.0833L25.204 45.4916C25.116 45.4391 25.0237 45.3484 24.9644 45.23C24.9106 45.1232 24.9141 45.0546 24.9141 45.0739H27.7353ZM26.6926 43.1062C26.1438 42.755 25.4701 42.7063 24.9819 42.7063V45.5148C25.1496 45.5148 25.2483 45.5263 25.2946 45.535C25.316 45.539 25.3139 45.5401 25.2946 45.5334C25.2758 45.5266 25.2287 45.5082 25.1669 45.4688L26.6926 43.1062ZM24.9819 42.7063H22.928V45.5148H24.9819V42.7063ZM20.4819 48.871L19.9487 51.3678L22.7081 51.9519L23.2413 49.4552L20.4819 48.871ZM21.3284 53.0641H23.797V50.2556H21.3284V53.0641ZM23.797 53.0641C24.5643 53.0641 25.5035 52.9668 26.1854 52.4172L24.4103 50.2342C24.4989 50.1628 24.5323 50.1781 24.4073 50.2059C24.2901 50.232 24.0942 50.2556 23.797 50.2556V53.0641ZM26.1962 52.4083C26.8811 51.8451 27.1626 51.0609 27.1626 50.264H24.3414C24.3414 50.34 24.329 50.3504 24.3407 50.3231C24.3464 50.3099 24.3554 50.2935 24.3681 50.2767C24.3807 50.2599 24.3924 50.2487 24.3994 50.2429L26.1962 52.4083ZM27.1626 50.264C27.1626 49.49 26.8674 48.6771 26.0749 48.1749L24.5602 50.5444C24.5288 50.5245 24.4914 50.4949 24.455 50.4541C24.4183 50.4131 24.3904 50.3699 24.3709 50.3293C24.3323 50.2488 24.3414 50.2119 24.3414 50.264H27.1626ZM26.0652 48.1689C25.4977 47.8158 24.7964 47.7588 24.2512 47.7588V50.5673C24.4453 50.5673 24.5684 50.5805 24.6361 50.593C24.6683 50.5989 24.6769 50.6027 24.6679 50.5995C24.6591 50.5965 24.6223 50.5831 24.57 50.5505L26.0652 48.1689ZM24.2512 47.7588H21.8616V50.5673H24.2512V47.7588ZM35.9734 44.779L37.3531 45.0711L37.7153 43.3747H35.9734V44.779ZM32.0632 44.779L30.6836 44.4858L30.3195 46.1832H32.0632V44.779ZM32.8729 41.0044V39.6001H31.7317L31.4933 40.7111L32.8729 41.0044ZM44.9984 41.0044L46.3778 41.2976L46.742 39.6001H44.9984V41.0044ZM44.1887 44.779V46.1832H45.3298L45.5681 45.0722L44.1887 44.779ZM40.2785 44.779V43.3747H39.1362L38.8988 44.4869L40.2785 44.779ZM38.1457 54.7661V56.1703H39.2878L39.5254 55.0581L38.1457 54.7661ZM33.8405 54.7661L32.4608 54.474L32.0984 56.1703H33.8405V54.7661ZM35.9734 43.3747H32.0632V46.1832H35.9734V43.3747ZM33.4426 45.0722L34.2523 41.2976L31.4933 40.7111L30.6836 44.4858L33.4426 45.0722ZM32.8729 42.4086H44.9984V39.6001H32.8729V42.4086ZM43.6188 40.7111L42.8091 44.4858L45.5681 45.0722L46.3778 41.2976L43.6188 40.7111ZM44.1887 43.3747H40.2785V46.1832H44.1887V43.3747ZM38.8988 44.4869L36.766 54.474L39.5254 55.0581L41.6582 45.0711L38.8988 44.4869ZM38.1457 53.3618H33.8405V56.1703H38.1457V53.3618ZM35.2202 55.0581L37.3531 45.0711L34.5937 44.4869L32.4608 54.474L35.2202 55.0581ZM58.2434 42.3805L57.2347 43.3622L57.246 43.3735L58.2434 42.3805ZM59.2308 50.3426L60.5523 50.8341L60.554 50.8295L59.2308 50.3426ZM57.3153 53.2523L56.3689 52.2109L56.3586 52.2204L57.3153 53.2523ZM46.6116 53.5668L47.5785 52.5442L47.5675 52.5341L46.6116 53.5668ZM45.644 45.2312L44.3555 44.6595L44.3505 44.6713L45.644 45.2312ZM47.8558 42.3019L48.739 43.3969L48.7517 43.3868L48.7641 43.3763L47.8558 42.3019ZM50.0281 50.7162L51.1533 49.8693L51.1487 49.8631L50.0281 50.7162ZM53.7013 50.8931L54.61 51.9674L54.6219 51.9573L53.7013 50.8931ZM54.8467 49.0844L56.1737 49.5609L56.1762 49.554L54.8467 49.0844ZM54.7282 44.9559L53.6296 45.837L53.6394 45.8486L54.7282 44.9559ZM51.0155 45.0346L51.9544 46.0826L51.9656 46.0727L51.9763 46.0628L51.0155 45.0346ZM49.8899 46.8236L48.5564 46.3658L48.5528 46.376L48.5494 46.3864L49.8899 46.8236ZM53.2471 42.0351C55.1843 42.0351 56.4343 42.5471 57.2347 43.3622L59.2521 41.3989C57.7618 39.8811 55.6809 39.2266 53.2471 39.2266V42.0351ZM57.246 43.3735C58.0386 44.1625 58.4917 45.2536 58.4917 46.8039H61.3129C61.3129 44.6582 60.6601 42.8004 59.2409 41.3876L57.246 43.3735ZM58.4917 46.8039C58.4917 47.7733 58.3041 48.7881 57.9077 49.8558L60.554 50.8295C61.0529 49.4856 61.3129 48.1413 61.3129 46.8039H58.4917ZM57.9095 49.8512C57.5295 50.8638 57.0083 51.6348 56.3689 52.2109L58.2616 54.2935C59.2811 53.3754 60.037 52.2069 60.5523 50.8341L57.9095 49.8512ZM56.3586 52.2204C55.3218 53.1731 53.801 53.7353 51.608 53.7353V56.5438C54.2863 56.5438 56.5703 55.8479 58.2721 54.2841L56.3586 52.2204ZM51.608 53.7353C49.5984 53.7353 48.3403 53.2582 47.5785 52.5442L45.645 54.5894C47.1212 55.9726 49.194 56.5438 51.608 56.5438V53.7353ZM47.5675 52.5341C46.7545 51.7885 46.2646 50.6769 46.2646 48.9861H43.4435C43.4435 51.2534 44.1253 53.1958 45.6558 54.5995L47.5675 52.5341ZM46.2646 48.9861C46.2646 47.8839 46.4871 46.8226 46.9376 45.791L44.3505 44.6713C43.7477 46.0512 43.4435 47.4933 43.4435 48.9861H46.2646ZM46.9324 45.8028C47.3907 44.779 47.9971 43.9898 48.739 43.3969L46.9728 41.2068C45.845 42.1081 44.9769 43.2717 44.3555 44.6595L46.9324 45.8028ZM48.7641 43.3763C49.771 42.5327 51.2127 42.0351 53.2471 42.0351V39.2266C50.7526 39.2266 48.6002 39.8429 46.9475 41.2275L48.7641 43.3763ZM48.1041 48.9665C48.1041 49.907 48.3295 50.8166 48.9077 51.5693L51.1487 49.8631C51.0422 49.7246 50.9253 49.4675 50.9253 48.9665H48.1041ZM48.903 51.5631C49.6384 52.5313 50.7242 52.9265 51.8845 52.9265V50.118C51.386 50.118 51.2343 49.9759 51.1533 49.8693L48.903 51.5631ZM51.8845 52.9265C52.8968 52.9265 53.8325 52.6191 54.61 51.9674L52.7927 49.819C52.5696 50.006 52.2941 50.118 51.8845 50.118V52.9265ZM54.6219 51.9573C55.3349 51.3459 55.8305 50.5084 56.1737 49.5609L53.5198 48.608C53.2838 49.2595 53.0158 49.6277 52.7809 49.829L54.6219 51.9573ZM56.1762 49.554C56.5104 48.6164 56.6918 47.6838 56.6918 46.7646H53.8706C53.8706 47.3134 53.7624 47.9273 53.5174 48.6149L56.1762 49.554ZM56.6918 46.7646C56.6918 45.7829 56.4518 44.8304 55.8172 44.0632L53.6394 45.8486C53.7421 45.9727 53.8706 46.2259 53.8706 46.7646H56.6918ZM55.8268 44.075C55.1154 43.1958 54.0978 42.8439 53.0299 42.8439V45.6524C53.4629 45.6524 53.5775 45.7725 53.6296 45.837L55.8268 44.075ZM53.0299 42.8439C51.8984 42.8439 50.8832 43.2392 50.0548 44.0064L51.9763 46.0628C52.2801 45.7815 52.6078 45.6524 53.0299 45.6524V42.8439ZM50.0766 43.9866C49.3715 44.6127 48.8799 45.4318 48.5564 46.3658L51.2235 47.2814C51.4266 46.695 51.6854 46.3214 51.9544 46.0826L50.0766 43.9866ZM48.5494 46.3864C48.2616 47.2609 48.1041 48.1236 48.1041 48.9665H50.9253C50.9253 48.4725 51.0178 47.9067 51.2304 47.2607L48.5494 46.3864ZM67.6095 54.7661L66.2043 54.8893L66.3177 56.1703H67.6095V54.7661ZM66.7998 45.6244L68.2049 45.5011L68.0667 43.9401L66.5231 44.2473L66.7998 45.6244ZM66.7011 45.644L66.4243 44.267L65.4346 44.464L65.3026 45.4602L66.7011 45.644ZM66.5628 46.686L67.9428 46.9768L67.9541 46.9237L67.9612 46.8698L66.5628 46.686ZM64.8447 54.7661V56.1703H65.9879L66.2247 55.0569L64.8447 54.7661ZM60.9346 54.7661L59.5549 54.4737L59.192 56.1703H60.9346V54.7661ZM63.8771 41.0044V39.6001H62.735L62.4974 40.712L63.8771 41.0044ZM69.7226 41.0044L71.1294 40.9018L71.0336 39.6001H69.7226V41.0044ZM70.2953 48.7895L71.6983 48.935L71.7112 48.8112L71.7021 48.687L70.2953 48.7895ZM70.1965 49.7332L68.7934 49.5877L68.6313 51.1375H70.1965V49.7332ZM70.2953 49.7332V51.1375H71.2728L71.616 50.2262L70.2953 49.7332ZM70.6507 48.7895L69.3864 48.1666L69.3548 48.2301L69.3299 48.2965L70.6507 48.7895ZM74.5214 41.0044V39.6001H73.6456L73.2571 40.3814L74.5214 41.0044ZM80.3669 41.0044L81.7465 41.2967L82.1093 39.6001H80.3669V41.0044ZM77.4244 54.7661V56.1703H78.5663L78.804 55.0584L77.4244 54.7661ZM73.5143 54.7661L72.1341 54.4752L71.7737 56.1703H73.5143V54.7661ZM75.2324 46.686L73.8891 46.2571L73.8672 46.3252L73.8522 46.3951L75.2324 46.686ZM75.5681 45.644L76.9112 46.0729L77.3937 44.5755L75.8447 44.267L75.5681 45.644ZM75.4693 45.6244L75.746 44.2473L74.7016 44.0394L74.2148 44.9825L75.4693 45.6244ZM70.7495 54.7661V56.1703H71.6104L72.0041 55.4079L70.7495 54.7661ZM69.0146 54.6428L68.2049 45.5011L65.3946 45.7476L66.2043 54.8893L69.0146 54.6428ZM66.5231 44.2473L66.4243 44.267L66.9777 47.021L67.0764 47.0014L66.5231 44.2473ZM65.3026 45.4602L65.1644 46.5022L67.9612 46.8698L68.0994 45.8278L65.3026 45.4602ZM65.1827 46.3951L63.4646 54.4752L66.2247 55.0569L67.9428 46.9768L65.1827 46.3951ZM64.8447 53.3618H60.9346V56.1703H64.8447V53.3618ZM62.3141 55.0584L65.2566 41.2967L62.4974 40.712L59.5549 54.4737L62.3141 55.0584ZM63.8771 42.4086H69.7226V39.6001H63.8771V42.4086ZM68.3156 41.1069L68.8883 48.8921L71.7021 48.687L71.1294 40.9018L68.3156 41.1069ZM68.8922 48.6441L68.7934 49.5877L71.5995 49.8787L71.6983 48.935L68.8922 48.6441ZM70.1965 51.1375H70.2953V48.3289H70.1965V51.1375ZM71.616 50.2262L71.9715 49.2826L69.3299 48.2965L68.9744 49.2402L71.616 50.2262ZM71.9149 49.4125L75.7856 41.6273L73.2571 40.3814L69.3864 48.1666L71.9149 49.4125ZM74.5214 42.4086H80.3669V39.6001H74.5214V42.4086ZM78.9872 40.712L76.0447 54.4737L78.804 55.0584L81.7465 41.2967L78.9872 40.712ZM77.4244 53.3618H73.5143V56.1703H77.4244V53.3618ZM74.8942 55.0569L76.6124 46.9768L73.8522 46.3951L72.1341 54.4752L74.8942 55.0569ZM76.5755 47.1148L76.9112 46.0729L74.2248 45.2152L73.8891 46.2571L76.5755 47.1148ZM75.8447 44.267L75.746 44.2473L75.1926 47.0014L75.2913 47.021L75.8447 44.267ZM74.2148 44.9825L69.4949 54.1242L72.0041 55.4079L76.7239 46.2662L74.2148 44.9825ZM70.7495 53.3618H67.6095V56.1703H70.7495V53.3618ZM94.7794 42.3805L93.7707 43.3622L93.782 43.3735L94.7794 42.3805ZM95.7668 50.3426L97.0883 50.8341L97.09 50.8295L95.7668 50.3426ZM93.8512 53.2523L92.9049 52.2109L92.8944 52.2204L93.8512 53.2523ZM83.1476 53.5668L84.1145 52.5442L84.1035 52.5341L83.1476 53.5668ZM82.18 45.2312L80.8915 44.6595L80.8865 44.6713L82.18 45.2312ZM84.3918 42.3019L85.275 43.3969L85.2877 43.3868L85.3001 43.3763L84.3918 42.3019ZM86.5641 50.7162L87.6893 49.8693L87.6847 49.8631L86.5641 50.7162ZM90.2373 50.8931L91.146 51.9674L91.1577 51.9573L90.2373 50.8931ZM91.3827 49.0844L92.7096 49.5609L92.7122 49.554L91.3827 49.0844ZM91.2642 44.9559L90.1656 45.837L90.1754 45.8486L91.2642 44.9559ZM87.5515 45.0346L88.4904 46.0826L88.5016 46.0727L88.5123 46.0628L87.5515 45.0346ZM86.4259 46.8236L85.0924 46.3658L85.0888 46.376L85.0854 46.3864L86.4259 46.8236ZM89.7831 42.0351C91.7203 42.0351 92.9703 42.5471 93.7707 43.3622L95.7881 41.3989C94.2978 39.8811 92.2169 39.2266 89.7831 39.2266V42.0351ZM93.782 43.3735C94.5746 44.1625 95.0277 45.2536 95.0277 46.8039H97.8489C97.8489 44.6582 97.196 42.8004 95.7768 41.3876L93.782 43.3735ZM95.0277 46.8039C95.0277 47.7733 94.8401 48.7881 94.4437 49.8558L97.09 50.8295C97.5889 49.4856 97.8489 48.1413 97.8489 46.8039H95.0277ZM94.4455 49.8512C94.0655 50.8638 93.5443 51.6348 92.9049 52.2109L94.7976 54.2935C95.8171 53.3754 96.573 52.2069 97.0883 50.8341L94.4455 49.8512ZM92.8944 52.2204C91.8578 53.1731 90.337 53.7353 88.144 53.7353V56.5438C90.8223 56.5438 93.1063 55.8479 94.8081 54.2841L92.8944 52.2204ZM88.144 53.7353C86.1344 53.7353 84.8763 53.2582 84.1145 52.5442L82.181 54.5894C83.6571 55.9726 85.73 56.5438 88.144 56.5438V53.7353ZM84.1035 52.5341C83.2905 51.7885 82.8006 50.6769 82.8006 48.9861H79.9794C79.9794 51.2534 80.6613 53.1958 82.1918 54.5995L84.1035 52.5341ZM82.8006 48.9861C82.8006 47.8839 83.0231 46.8226 83.4736 45.791L80.8865 44.6713C80.2837 46.0512 79.9794 47.4933 79.9794 48.9861H82.8006ZM83.4684 45.8028C83.9267 44.779 84.5331 43.9898 85.275 43.3969L83.5088 41.2068C82.381 42.1081 81.5129 43.2717 80.8915 44.6595L83.4684 45.8028ZM85.3001 43.3763C86.307 42.5327 87.7487 42.0351 89.7831 42.0351V39.2266C87.2886 39.2266 85.1362 39.8429 83.4835 41.2275L85.3001 43.3763ZM84.6401 48.9665C84.6401 49.907 84.8655 50.8166 85.4437 51.5693L87.6847 49.8631C87.5782 49.7246 87.4612 49.4675 87.4612 48.9665H84.6401ZM85.439 51.5631C86.1744 52.5313 87.2602 52.9265 88.4204 52.9265V50.118C87.9219 50.118 87.7702 49.9759 87.6893 49.8693L85.439 51.5631ZM88.4204 52.9265C89.4328 52.9265 90.3685 52.6191 91.146 51.9674L89.3287 49.819C89.1056 50.006 88.8301 50.118 88.4204 50.118V52.9265ZM91.1577 51.9573C91.8709 51.3459 92.3664 50.5084 92.7096 49.5609L90.0557 48.608C89.8198 49.2595 89.5518 49.6277 89.3169 49.829L91.1577 51.9573ZM92.7122 49.554C93.0464 48.6164 93.2278 47.6838 93.2278 46.7646H90.4066C90.4066 47.3134 90.2984 47.9273 90.0534 48.6149L92.7122 49.554ZM93.2278 46.7646C93.2278 45.7829 92.9877 44.8304 92.3532 44.0632L90.1754 45.8486C90.2781 45.9727 90.4066 46.2259 90.4066 46.7646H93.2278ZM92.3628 44.075C91.6513 43.1958 90.6338 42.8439 89.5659 42.8439V45.6524C89.9989 45.6524 90.1134 45.7725 90.1656 45.837L92.3628 44.075ZM89.5659 42.8439C88.4344 42.8439 87.4192 43.2392 86.5908 44.0064L88.5123 46.0628C88.8161 45.7815 89.1438 45.6524 89.5659 45.6524V42.8439ZM86.6126 43.9866C85.9075 44.6127 85.4159 45.4318 85.0924 46.3658L87.7594 47.2814C87.9626 46.695 88.2214 46.3214 88.4904 46.0826L86.6126 43.9866ZM85.0854 46.3864C84.7976 47.2609 84.6401 48.1236 84.6401 48.9665H87.4612C87.4612 48.4725 87.5538 47.9067 87.7663 47.2607L85.0854 46.3864ZM103.987 44.3858V42.9815H102.839L102.606 44.1013L103.987 44.3858ZM103.632 46.0962L102.251 45.8117L101.9 47.5004H103.632V46.0962ZM110.09 47.0988L111.047 46.0677L111.039 46.06L111.03 46.0524L110.09 47.0988ZM109.28 53.7831L110.1 54.9257L110.111 54.9177L110.122 54.9093L109.28 53.7831ZM97.4704 54.7661L96.0908 54.4737L95.728 56.1703H97.4704V54.7661ZM100.413 41.0044V39.6001H99.271L99.0333 40.712L100.413 41.0044ZM111.985 41.0044L113.365 41.2997L113.732 39.6001H111.985V41.0044ZM111.255 44.3858V45.7901H112.394L112.634 44.6811L111.255 44.3858ZM103 49.0451V47.6409H101.86L101.621 48.7509L103 49.0451ZM102.467 51.5222L101.087 51.228L100.722 52.9265H102.467V51.5222ZM106.12 51.1487L107.067 52.1899L107.093 52.1665L107.118 52.1416L106.12 51.1487ZM106.12 49.2614L105.286 50.3939L105.3 50.404L106.12 49.2614ZM102.606 44.1013L102.251 45.8117L105.013 46.3807L105.369 44.6703L102.606 44.1013ZM103.632 47.5004H106.574V44.6919H103.632V47.5004ZM106.574 47.5004C108.013 47.5004 108.772 47.8091 109.149 48.1453L111.03 46.0524C109.907 45.0517 108.322 44.6919 106.574 44.6919V47.5004ZM109.132 48.13C109.469 48.4404 109.726 48.9412 109.726 49.8512H112.547C112.547 48.3758 112.105 47.0415 111.047 46.0677L109.132 48.13ZM109.726 49.8512C109.726 51.1672 109.275 52.036 108.438 52.6569L110.122 54.9093C111.76 53.6952 112.547 51.9428 112.547 49.8512H109.726ZM108.46 52.6404C107.891 53.0451 106.835 53.3618 105.054 53.3618V56.1703C107.065 56.1703 108.826 55.8316 110.1 54.9257L108.46 52.6404ZM105.054 53.3618H97.4704V56.1703H105.054V53.3618ZM98.8501 55.0584L101.793 41.2967L99.0333 40.712L96.0908 54.4737L98.8501 55.0584ZM100.413 42.4086H111.985V39.6001H100.413V42.4086ZM110.606 40.709L109.876 44.0905L112.634 44.6811L113.365 41.2997L110.606 40.709ZM111.255 42.9815H103.987V45.7901H111.255V42.9815ZM101.621 48.7509L101.087 51.228L103.846 51.8164L104.379 49.3393L101.621 48.7509ZM102.467 52.9265H104.738V50.118H102.467V52.9265ZM104.738 52.9265C105.499 52.9265 106.398 52.7922 107.067 52.1899L105.174 50.1074C105.24 50.0478 105.272 50.0535 105.198 50.0736C105.122 50.0942 104.976 50.118 104.738 50.118V52.9265ZM107.118 52.1416C107.681 51.5813 107.945 50.8667 107.945 50.1067H105.124C105.124 50.1347 105.122 50.1517 105.121 50.1597C105.119 50.1674 105.118 50.1682 105.12 50.1644C105.121 50.1607 105.124 50.1562 105.126 50.1527C105.128 50.1493 105.128 50.1504 105.123 50.1557L107.118 52.1416ZM107.945 50.1067C107.945 49.3313 107.623 48.604 106.94 48.1187L105.3 50.404C105.263 50.3776 105.206 50.3216 105.164 50.2363C105.124 50.1553 105.124 50.1006 105.124 50.1067H107.945ZM106.954 48.129C106.376 47.7064 105.649 47.6409 105.113 47.6409V50.4494C105.285 50.4494 105.382 50.463 105.423 50.4718C105.441 50.4759 105.436 50.4762 105.414 50.4672C105.392 50.4582 105.344 50.4367 105.286 50.3939L106.954 48.129ZM105.113 47.6409H103V50.4494H105.113V47.6409ZM118.164 48.3767L116.784 48.0838L119.278 49.2376L118.164 48.3767ZM123.91 41.0044V39.6001H123.219L122.796 40.1434L123.91 41.0044ZM128.097 41.0044L129.477 41.2967L129.839 39.6001H128.097V41.0044ZM125.154 54.7661V56.1703H126.296L126.534 55.0584L125.154 54.7661ZM120.968 54.7661L119.588 54.4726L119.224 56.1703H120.968V54.7661ZM122.567 47.3151L123.947 47.6086L121.45 46.4581L122.567 47.3151ZM116.801 54.7661V56.1703H117.495L117.918 55.6231L116.801 54.7661ZM112.614 54.7661L111.235 54.4737L110.872 56.1703H112.614V54.7661ZM115.557 41.0044V39.6001H114.415L114.177 40.712L115.557 41.0044ZM119.743 41.0044L121.123 41.2973L121.487 39.6001H119.743V41.0044ZM119.278 49.2376L125.025 41.8653L122.796 40.1434L117.049 47.5157L119.278 49.2376ZM123.91 42.4086H128.097V39.6001H123.91V42.4086ZM126.717 40.712L123.775 54.4737L126.534 55.0584L129.477 41.2967L126.717 40.712ZM125.154 53.3618H120.968V56.1703H125.154V53.3618ZM122.347 55.0595L123.947 47.6086L121.188 47.0216L119.588 54.4726L122.347 55.0595ZM121.45 46.4581L115.683 53.909L117.918 55.6231L123.685 48.1721L121.45 46.4581ZM116.801 53.3618H112.614V56.1703H116.801V53.3618ZM113.994 55.0584L116.936 41.2967L114.177 40.712L111.235 54.4737L113.994 55.0584ZM115.557 42.4086H119.743V39.6001H115.557V42.4086ZM118.364 40.7114L116.784 48.0838L119.543 48.6696L121.123 41.2973L118.364 40.7114ZM126.944 54.7464L125.565 54.449L125.268 55.8171L126.641 56.1178L126.944 54.7464ZM127.714 51.2077L127.962 49.8253L126.623 49.5873L126.336 50.9102L127.714 51.2077ZM131.19 48.0228L129.814 47.7121L129.814 47.7143L131.19 48.0228ZM132.789 41.0044V39.6001H131.663L131.414 40.6936L132.789 41.0044ZM144.105 41.0044L145.485 41.2967L145.847 39.6001H144.105V41.0044ZM141.162 54.7661V56.1703H142.305L142.542 55.0584L141.162 54.7661ZM136.818 54.7661L135.438 54.474L135.076 56.1703H136.818V54.7661ZM138.951 44.779L140.331 45.0711L140.693 43.3747H138.951V44.779ZM136.008 44.779V43.3747H134.888L134.634 44.4615L136.008 44.779ZM134.922 49.4383L136.291 49.7788L136.294 49.7673L136.296 49.7558L134.922 49.4383ZM134.784 49.9495L133.423 49.58L133.417 49.602L133.412 49.6242L134.784 49.9495ZM134.646 50.4803L133.308 50.0362L133.273 50.1407L133.254 50.2494L134.646 50.4803ZM134.508 51.0111L133.151 50.6253L133.145 50.6478L133.139 50.6705L134.508 51.0111ZM134.152 52.0727L132.837 51.5638L132.829 51.5844L132.822 51.6054L134.152 52.0727ZM133.915 52.5838L132.741 51.8049L132.71 51.8522L132.682 51.9019L133.915 52.5838ZM133.639 53.0557L132.429 52.3332L132.421 52.346L132.414 52.359L133.639 53.0557ZM133.303 53.5078L132.305 52.5149L132.276 52.5441L132.249 52.5749L133.303 53.5078ZM132.928 53.8814L131.979 52.8424L131.954 52.8648L131.93 52.8884L132.928 53.8814ZM132.493 54.2156L131.782 53.0026L131.769 53.0103L131.756 53.0183L132.493 54.2156ZM128.323 55.0438L129.093 51.5051L126.336 50.9102L125.565 54.449L128.323 55.0438ZM127.466 52.59C127.876 52.6628 128.269 52.7102 128.623 52.7102V49.9017C128.502 49.9017 128.29 49.8836 127.962 49.8253L127.466 52.59ZM128.623 52.7102C129.548 52.7102 130.448 52.4384 131.141 51.7484L129.146 49.7626C129.101 49.8066 128.988 49.9017 128.623 49.9017V52.7102ZM131.141 51.7484C131.541 51.3503 131.805 50.8035 131.999 50.2974C132.207 49.7559 132.394 49.0937 132.566 48.3313L129.814 47.7143C129.657 48.4067 129.505 48.9273 129.363 49.2968C129.208 49.7016 129.114 49.7936 129.146 49.7626L131.141 51.7484ZM132.565 48.3336L134.165 41.3151L131.414 40.6936L129.814 47.7121L132.565 48.3336ZM132.789 42.4086H144.105V39.6001H132.789V42.4086ZM142.725 40.712L139.783 54.4737L142.542 55.0584L145.485 41.2967L142.725 40.712ZM141.162 53.3618H136.818V56.1703H141.162V53.3618ZM138.198 55.0581L140.331 45.0711L137.571 44.4869L135.438 54.474L138.198 55.0581ZM138.951 43.3747H136.008V46.1832H138.951V43.3747ZM134.634 44.4615L133.548 49.1208L136.296 49.7558L137.383 45.0965L134.634 44.4615ZM133.554 49.0978C133.554 49.0983 133.553 49.1 133.553 49.1011C133.552 49.1034 133.552 49.1063 133.551 49.1101C133.549 49.1179 133.546 49.1278 133.543 49.1405C133.536 49.1656 133.527 49.1987 133.516 49.2403C133.493 49.3234 133.462 49.4365 133.423 49.58L136.145 50.3189C136.222 50.0389 136.273 49.8498 136.291 49.7788L133.554 49.0978ZM133.412 49.6242C133.38 49.7571 133.354 49.8601 133.335 49.9361C133.313 50.0214 133.304 50.0457 133.308 50.0362L135.984 50.9243C136.034 50.7754 136.094 50.5342 136.156 50.2747L133.412 49.6242ZM133.254 50.2494C133.258 50.2283 133.26 50.2227 133.255 50.242C133.252 50.258 133.245 50.2831 133.236 50.3195C133.217 50.3925 133.189 50.4933 133.151 50.6253L135.864 51.3968C135.936 51.1445 136.008 50.8844 136.037 50.7111L133.254 50.2494ZM133.139 50.6705C133.109 50.7922 133.083 50.8875 133.062 50.9595C133.052 50.9952 133.044 51.0224 133.037 51.0424C133.031 51.063 133.028 51.0706 133.029 51.0685L135.67 52.0546C135.741 51.8671 135.81 51.6136 135.876 51.3516L133.139 50.6705ZM133.029 51.0685C132.993 51.1647 132.929 51.3282 132.837 51.5638L135.467 52.5816C135.559 52.3454 135.628 52.168 135.67 52.0546L133.029 51.0685ZM132.822 51.6054C132.793 51.6857 132.77 51.7421 132.753 51.7791C132.735 51.818 132.73 51.8223 132.741 51.8049L135.089 53.3628C135.262 53.105 135.387 52.8102 135.482 52.54L132.822 51.6054ZM132.682 51.9019C132.627 52.0001 132.544 52.1422 132.429 52.3332L134.848 53.7782C134.97 53.5759 135.071 53.4035 135.148 53.2657L132.682 51.9019ZM132.414 52.359C132.355 52.4615 132.315 52.5051 132.305 52.5149L134.3 54.5008C134.527 54.2747 134.712 54.0169 134.863 53.7523L132.414 52.359ZM132.249 52.5749C132.183 52.6483 132.095 52.7373 131.979 52.8424L133.877 54.9204C134.05 54.7632 134.212 54.6033 134.357 54.4408L132.249 52.5749ZM131.93 52.8884C131.883 52.9357 131.834 52.9727 131.782 53.0026L133.204 55.4286C133.469 55.275 133.709 55.0892 133.925 54.8743L131.93 52.8884ZM131.756 53.0183C131.251 53.3266 130.401 53.5584 129.057 53.5584V56.3669C130.662 56.3669 132.103 56.1007 133.23 55.4129L131.756 53.0183ZM129.057 53.5584C128.397 53.5584 127.795 53.4951 127.247 53.375L126.641 56.1178C127.409 56.2862 128.216 56.3669 129.057 56.3669V53.5584ZM150.321 48.3767L148.942 48.0838L151.436 49.2376L150.321 48.3767ZM156.068 41.0044V39.6001H155.377L154.954 40.1434L156.068 41.0044ZM160.255 41.0044L161.634 41.2967L161.997 39.6001H160.255V41.0044ZM157.312 54.7661V56.1703H158.455L158.692 55.0584L157.312 54.7661ZM153.126 54.7661L151.746 54.4726L151.382 56.1703H153.126V54.7661ZM154.725 47.3151L156.105 47.6086L153.608 46.4581L154.725 47.3151ZM148.959 54.7661V56.1703H149.653L150.076 55.6231L148.959 54.7661ZM144.772 54.7661L143.393 54.4737L143.03 56.1703H144.772V54.7661ZM147.715 41.0044V39.6001H146.574L146.335 40.712L147.715 41.0044ZM151.901 41.0044L153.281 41.2973L153.645 39.6001H151.901V41.0044ZM151.436 49.2376L157.183 41.8653L154.954 40.1434L149.207 47.5157L151.436 49.2376ZM156.068 42.4086H160.255V39.6001H156.068V42.4086ZM158.875 40.712L155.933 54.4737L158.692 55.0584L161.634 41.2967L158.875 40.712ZM157.312 53.3618H153.126V56.1703H157.312V53.3618ZM154.505 55.0595L156.105 47.6086L153.346 47.0216L151.746 54.4726L154.505 55.0595ZM153.608 46.4581L147.842 53.909L150.076 55.6231L155.843 48.1721L153.608 46.4581ZM148.959 53.3618H144.772V56.1703H148.959V53.3618ZM146.152 55.0584L149.094 41.2967L146.335 40.712L143.393 54.4737L146.152 55.0584ZM147.715 42.4086H151.901V39.6001H147.715V42.4086ZM150.522 40.7114L148.942 48.0838L151.701 48.6696L153.281 41.2973L150.522 40.7114ZM161.275 54.7661L159.895 54.4719L159.53 56.1703H161.275V54.7661ZM162.104 50.9128V49.5085H160.963L160.725 50.6186L162.104 50.9128ZM166.113 50.9128L167.493 51.207L167.858 49.5085H166.113V50.9128ZM165.284 54.7661V56.1703H166.423L166.663 55.0602L165.284 54.7661ZM162.654 55.0602L163.484 51.207L160.725 50.6186L159.895 54.4719L162.654 55.0602ZM162.104 52.317H166.113V49.5085H162.104V52.317ZM164.734 50.6186L163.904 54.4719L166.663 55.0602L167.493 51.207L164.734 50.6186ZM165.284 53.3618H161.275V56.1703H165.284V53.3618ZM172.255 41.0044V39.6001H171.114L170.875 40.712L172.255 41.0044ZM182.721 42.0856L183.7 41.0747L183.692 41.0667L182.721 42.0856ZM182.287 49.3007L183.266 50.3116L183.272 50.3064L182.287 49.3007ZM181.063 50.1657L180.432 48.9096L180.417 48.9173L181.063 50.1657ZM179.621 50.6179L179.412 49.2292L179.407 49.2299L179.621 50.6179ZM178.397 50.7752L178.461 52.178L178.49 52.1766L178.519 52.1741L178.397 50.7752ZM174.467 50.7948V49.3906H173.325L173.087 50.5024L174.467 50.7948ZM173.617 54.7661V56.1703H174.76L174.997 55.0584L173.617 54.7661ZM169.312 54.7661L167.933 54.4737L167.57 56.1703H169.312V54.7661ZM175.77 44.72V43.3158H174.629L174.39 44.4278L175.77 44.72ZM175.178 47.492L173.798 47.1998L173.436 48.8963H175.178V47.492ZM178.792 47.1185L177.945 45.9951L177.931 46.006L177.917 46.0175L178.792 47.1185ZM172.255 42.4086H179.068V39.6001H172.255V42.4086ZM179.068 42.4086C180.583 42.4086 181.367 42.7423 181.751 43.1046L183.692 41.0667C182.549 39.9874 180.898 39.6001 179.068 39.6001V42.4086ZM181.743 43.0964C182.118 43.457 182.417 44.0787 182.417 45.2115H185.238C185.238 43.592 184.799 42.1296 183.7 41.0747L181.743 43.0964ZM182.417 45.2115C182.417 46.6489 182.001 47.6177 181.302 48.295L183.272 50.3064C184.627 48.9915 185.238 47.2342 185.238 45.2115H182.417ZM181.308 48.2899C181.04 48.5472 180.749 48.7519 180.432 48.9096L181.695 51.4217C182.273 51.1338 182.798 50.7621 183.266 50.3116L181.308 48.2899ZM180.417 48.9173C180.132 49.0639 179.8 49.1712 179.412 49.2292L179.831 52.0066C180.496 51.9073 181.126 51.7131 181.709 51.4141L180.417 48.9173ZM179.407 49.2299C178.906 49.3067 178.532 49.3539 178.275 49.3762L178.519 52.1741C178.866 52.144 179.311 52.0863 179.835 52.0058L179.407 49.2299ZM178.333 49.3723C178.075 49.384 177.698 49.3906 177.192 49.3906V52.1991C177.714 52.1991 178.14 52.1925 178.461 52.178L178.333 49.3723ZM177.192 49.3906H174.467V52.1991H177.192V49.3906ZM173.087 50.5024L172.238 54.4737L174.997 55.0584L175.846 51.0872L173.087 50.5024ZM173.617 53.3618H169.312V56.1703H173.617V53.3618ZM170.692 55.0584L173.634 41.2967L170.875 40.712L167.933 54.4737L170.692 55.0584ZM174.39 44.4278L173.798 47.1998L176.557 47.7842L177.15 45.0122L174.39 44.4278ZM175.178 48.8963H177.231V46.0878H175.178V48.8963ZM177.231 48.8963C178.05 48.8963 178.971 48.769 179.668 48.2194L177.917 46.0175C177.962 45.9813 177.958 46.0038 177.835 46.0333C177.714 46.0625 177.519 46.0878 177.231 46.0878V48.8963ZM179.638 48.2419C180.435 47.647 180.755 46.773 180.755 45.8799H177.934C177.934 46.0007 177.914 46.04 177.918 46.0321C177.92 46.0282 177.924 46.0192 177.932 46.009C177.941 45.9989 177.947 45.9944 177.945 45.9951L179.638 48.2419ZM180.755 45.8799C180.755 45.0635 180.435 44.2339 179.618 43.7258L178.123 46.1074C178.1 46.0927 178.068 46.0687 178.035 46.0333C178.003 45.9977 177.978 45.9591 177.959 45.9226C177.924 45.8495 177.934 45.8197 177.934 45.8799H180.755ZM179.618 43.7258C179.048 43.3705 178.335 43.3158 177.784 43.3158V46.1243C177.988 46.1243 178.117 46.1376 178.189 46.1508C178.223 46.157 178.233 46.1611 178.224 46.1581C178.216 46.1553 178.178 46.1415 178.123 46.1074L179.618 43.7258ZM177.784 43.3158H175.77V46.1243H177.784V43.3158ZM190.763 47.0595L189.372 47.2933L190.071 51.41L192.013 47.7101L190.763 47.0595ZM193.943 41.0044V39.6001H193.088L192.693 40.3538L193.943 41.0044ZM198.426 41.0044L199.62 41.7496L200.973 39.6001H198.426V41.0044ZM191.81 51.5222L190.614 50.777L190.611 50.7825L191.81 51.5222ZM190.25 53.6061L191.236 54.611L191.247 54.5991L190.25 53.6061ZM188.571 54.6874L188.989 56.0289L188.999 56.0258L189.008 56.0227L188.571 54.6874ZM183.832 54.4712L182.452 54.1802L182.2 55.3619L183.336 55.786L183.832 54.4712ZM184.543 51.129L185.093 49.8363L183.517 49.1707L183.163 50.8381L184.543 51.129ZM187.663 50.5786L188.849 51.338L189.19 50.8105L189.023 50.206L187.663 50.5786ZM185.017 41.0044V39.6001H183.166L183.657 41.3769L185.017 41.0044ZM189.736 41.0044L191.127 40.7705L190.928 39.6001H189.736V41.0044ZM192.013 47.7101L195.193 41.6549L192.693 40.3538L189.513 46.4089L192.013 47.7101ZM193.943 42.4086H198.426V39.6001H193.943V42.4086ZM197.229 40.2591L190.614 50.777L193.005 52.2675L199.62 41.7496L197.229 40.2591ZM190.611 50.7825C190.055 51.6747 189.602 52.2654 189.253 52.6132L191.247 54.5991C191.82 54.0295 192.405 53.2308 193.009 52.262L190.611 50.7825ZM189.264 52.6013C188.822 53.0312 188.443 53.2523 188.134 53.3521L189.008 56.0227C189.832 55.7556 190.571 55.2557 191.234 54.611L189.264 52.6013ZM188.154 53.3459C187.763 53.4664 187.276 53.5387 186.675 53.5387V56.3472C187.496 56.3472 188.274 56.2491 188.989 56.0289L188.154 53.3459ZM186.675 53.5387C185.763 53.5387 184.987 53.4027 184.327 53.1564L183.336 55.786C184.362 56.1688 185.481 56.3472 186.675 56.3472V53.5387ZM185.211 54.7621L185.922 51.42L183.163 50.8381L182.452 54.1802L185.211 54.7621ZM183.991 52.4218C184.61 52.6833 185.266 52.8085 185.945 52.8085V50C185.622 50 185.344 49.9419 185.093 49.8363L183.991 52.4218ZM185.945 52.8085C187.103 52.8085 188.179 52.3759 188.849 51.338L186.476 49.8191C186.436 49.8822 186.366 50 185.945 50V52.8085ZM189.023 50.206L186.376 40.6318L183.657 41.3769L186.303 50.9511L189.023 50.206ZM185.017 42.4086H189.736V39.6001H185.017V42.4086ZM188.346 41.2382L189.372 47.2933L192.154 46.8257L191.127 40.7705L188.346 41.2382ZM206.676 49.6939V48.2896H205.613L205.319 49.3081L206.676 49.6939ZM211.021 49.6939L212.391 50.0315L212.824 48.2896H211.021V49.6939ZM209.066 53.2523L210.063 54.2452L210.073 54.2352L210.083 54.225L209.066 53.2523ZM199.705 42.6361L198.737 41.6149L198.735 41.6176L199.705 42.6361ZM210.112 42.2036L209.115 43.1967L209.128 43.2097L210.112 42.2036ZM211.159 43.8353L209.818 44.2706L209.823 44.2883L209.83 44.3058L211.159 43.8353ZM211.455 45.9782V47.3825H212.843L212.866 46.0001L211.455 45.9782ZM207.288 45.9782L205.886 45.8188L205.707 47.3825H207.288V45.9782ZM206.874 44.72L207.942 43.8032L207.908 43.7637L207.871 43.7271L206.874 44.72ZM203.358 44.9756L202.425 43.9234L202.418 43.9291L203.358 44.9756ZM202.49 50.8341L203.649 50.0348L203.629 50.0059L203.608 49.978L202.49 50.8341ZM205.867 51.0307L204.924 49.9851L204.919 49.9902L205.867 51.0307ZM206.676 51.0981H211.021V48.2896H206.676V51.0981ZM209.651 49.3563C209.368 50.5003 208.833 51.4656 208.049 52.2795L210.083 54.225C211.22 53.0467 211.99 51.6398 212.391 50.0315L209.651 49.3563ZM208.068 52.2593C207.109 53.2135 205.768 53.755 203.872 53.755V56.5635C206.348 56.5635 208.468 55.8336 210.063 54.2452L208.068 52.2593ZM203.872 53.755C201.944 53.755 200.705 53.2663 199.921 52.5032L197.949 54.5124C199.429 55.9512 201.481 56.5635 203.872 56.5635V53.755ZM199.921 52.5032C199.12 51.7253 198.647 50.6016 198.647 48.9468H195.826C195.826 51.1716 196.485 53.0885 197.949 54.5124L199.921 52.5032ZM198.647 48.9468C198.647 47.8682 198.835 46.8615 199.203 45.9163L196.574 44.8999C196.073 46.1827 195.826 47.5353 195.826 48.9468H198.647ZM199.203 45.9163C199.571 44.9721 200.068 44.2294 200.676 43.6546L198.735 41.6176C197.788 42.5107 197.074 43.6161 196.574 44.8999L199.203 45.9163ZM200.673 43.6573C201.762 42.6347 203.287 42.0547 205.412 42.0547V39.2462C202.746 39.2462 200.465 39.9901 198.737 41.6149L200.673 43.6573ZM205.412 42.0547C207.291 42.0547 208.434 42.519 209.115 43.1967L211.11 41.2106C209.71 39.8175 207.72 39.2462 205.412 39.2462V42.0547ZM209.128 43.2097C209.48 43.5515 209.698 43.9043 209.818 44.2706L212.501 43.4C212.225 42.5605 211.744 41.8256 211.097 41.1974L209.128 43.2097ZM209.83 44.3058C209.969 44.694 210.056 45.2316 210.045 45.9563L212.866 46.0001C212.88 45.0472 212.771 44.1562 212.488 43.3649L209.83 44.3058ZM211.455 44.574H207.288V47.3825H211.455V44.574ZM208.691 46.1376C208.791 45.2533 208.503 44.4512 207.942 43.8032L205.806 45.6368C205.865 45.7058 205.881 45.7462 205.883 45.7575C205.886 45.7659 205.892 45.7811 205.886 45.8188L208.691 46.1376ZM207.871 43.7271C207.18 43.0386 206.252 42.8243 205.373 42.8243V45.6328C205.837 45.6328 205.91 45.7462 205.876 45.713L207.871 43.7271ZM205.373 42.8243C204.263 42.8243 203.256 43.1916 202.425 43.9234L204.292 46.0278C204.593 45.7635 204.93 45.6328 205.373 45.6328V42.8243ZM202.418 43.9291C201.714 44.556 201.22 45.3495 200.914 46.2616L203.591 47.1497C203.759 46.6462 204.002 46.2865 204.299 46.022L202.418 43.9291ZM200.914 46.2616C200.637 47.0898 200.487 47.9153 200.487 48.7306H203.308C203.308 48.2614 203.394 47.7369 203.591 47.1497L200.914 46.2616ZM200.487 48.7306C200.487 49.8152 200.726 50.8552 201.371 51.6903L203.608 49.978C203.463 49.7908 203.308 49.4285 203.308 48.7306H200.487ZM201.33 51.6334C202.04 52.6542 203.175 53.0051 204.306 53.0051V50.1966C204.013 50.1966 203.845 50.1521 203.761 50.1163C203.69 50.0865 203.667 50.0598 203.649 50.0348L201.33 51.6334ZM204.306 53.0051C205.242 53.0051 206.109 52.707 206.814 52.0713L204.919 49.9902C204.782 50.1147 204.608 50.1966 204.306 50.1966V53.0051ZM206.809 52.0763C207.411 51.5381 207.81 50.8527 208.033 50.0796L205.319 49.3081C205.226 49.636 205.085 49.8419 204.924 49.9851L206.809 52.0763Z" fill="#FF6915"/>
</g>
</g>
<defs>
<clipPath id="clip0_4829_2005">
<rect width="213" height="66" fill="white"/>
</clipPath>
</defs>
</svg>
