<svg width="202" height="52" viewBox="0 0 202 52" fill="none" xmlns="http://www.w3.org/2000/svg">
<g clip-path="url(#clip0_5335_50200)">
<path d="M61.6255 17.0976C23.5039 17.0976 4.91563 23.9797 0.386719 27.4208C3.53727 26.4282 6.49091 24.3615 20.4715 23.2518C34.452 22.1421 117.548 20.8695 121.092 20.671C123.928 20.5122 143.802 15.4432 153.385 12.9286C144.524 12.5316 136.648 15.3109 128.772 16.105C122.47 16.7403 88.7333 16.6344 72.6524 16.502C83.0492 9.51406 93.7874 5.51716 97.8568 4.3922C111.089 1.85112 136.32 3.33342 147.281 4.3922C133.419 0.898214 112.756 0.0247388 104.158 0.024749C90.453 -0.610521 70.0926 11.142 61.6255 17.0976Z" fill="#FF6915"/>
<path d="M124.637 27.2223C133.105 21.0681 159.412 9.87151 196.903 14.3184C182.988 15.1787 149.054 18.9638 124.637 27.2223Z" fill="#FF6915"/>
<path d="M201.859 43.2483C162.572 63.1683 65.8105 40.7338 0 50.5008C79.3656 35.0529 116.476 60.9887 201.859 43.2483Z" fill="#FF6915"/>
<path d="M0 40.0602L1.8883 30.9099H4.07333L2.18503 40.0602H0ZM2.30642 36.3608L2.6571 34.6092H5.96162L5.61094 36.3608H2.30642ZM6.25836 40.0602L4.22169 35.6419L6.04255 34.6615L8.60524 40.0602H6.25836ZM6.0965 35.7073L3.9924 35.472L7.99829 30.9099H10.4531L6.0965 35.7073Z" fill="black"/>
<path d="M9.66797 40.0602L11.5562 30.9099H13.7143L12.4599 36.8706L18.1922 30.9099H20.2694L18.3811 40.0602H16.223L17.4909 34.1125L11.7451 40.0602H9.66797Z" fill="black"/>
<path d="M22.7689 40.0602L24.374 32.1517L24.7651 32.6354H21.2988L21.6494 30.9099H29.8365L29.4859 32.6354H25.9386L26.532 32.1517L24.927 40.0602H22.7689Z" fill="black"/>
<path d="M27.7793 40.0602L33.8758 30.9099H36.0473L38.3672 40.0602H36.1822L34.3479 31.9556H35.2111L30.1127 40.0602H27.7793ZM30.3015 38.0994L31.1917 36.4916H36.0608L36.3171 38.0994H30.3015Z" fill="black"/>
<path d="M39.6328 40.0602L41.5211 30.9099H43.6791L42.4248 36.8706L48.1571 30.9099H50.2342L48.3459 40.0602H46.1879L47.4557 34.1125L41.7099 40.0602H39.6328ZM45.9856 30.3478C45.1403 30.3478 44.5199 30.1779 44.1242 29.838C43.7376 29.4981 43.5937 28.997 43.6926 28.3347H45.0819C45.0369 28.6484 45.1043 28.8924 45.2842 29.0667C45.464 29.241 45.7338 29.3282 46.0935 29.3282C46.4441 29.3282 46.7319 29.2454 46.9567 29.0798C47.1905 28.9142 47.3388 28.6659 47.4018 28.3347H48.818C48.7011 29.0232 48.4089 29.533 47.9413 29.8641C47.4737 30.1866 46.8218 30.3478 45.9856 30.3478Z" fill="black"/>
<path d="M55.6336 40.2169C54.6714 40.2169 53.8397 40.0514 53.1383 39.7202C52.4459 39.3803 51.9109 38.9141 51.5333 38.3215C51.1556 37.7202 50.9668 37.0274 50.9668 36.2431C50.9668 35.4675 51.1061 34.7442 51.3849 34.0732C51.6726 33.4021 52.0728 32.8226 52.5853 32.3346C53.1068 31.8379 53.7228 31.4501 54.4331 31.1712C55.1525 30.8923 55.9528 30.7529 56.834 30.7529C57.6792 30.7529 58.4255 30.8923 59.073 31.1712C59.7204 31.4501 60.2104 31.8509 60.5431 32.3738L58.9651 33.6287C58.7223 33.2801 58.4121 33.0143 58.0344 32.8313C57.6567 32.6483 57.2071 32.5568 56.6856 32.5568C56.1551 32.5568 55.674 32.6483 55.2424 32.8313C54.8108 33.0056 54.4376 33.2584 54.1229 33.5895C53.8172 33.9119 53.5834 34.291 53.4215 34.7268C53.2597 35.1625 53.1788 35.6244 53.1788 36.1124C53.1788 36.5743 53.2822 36.9795 53.489 37.3281C53.6958 37.6679 53.997 37.9337 54.3927 38.1254C54.7883 38.3172 55.2649 38.413 55.8224 38.413C56.3079 38.413 56.762 38.3302 57.1847 38.1647C57.6073 37.9904 57.9894 37.7202 58.3311 37.3542L59.626 38.6353C59.1314 39.193 58.5424 39.5982 57.859 39.8509C57.1847 40.0949 56.4428 40.2169 55.6336 40.2169Z" fill="black"/>
<path d="M60.709 40.0602L62.5973 30.9099H64.7824L62.8941 40.0602H60.709ZM63.0154 36.3608L63.3661 34.6092H66.6706L66.32 36.3608H63.0154ZM66.9674 40.0602L64.9307 35.6419L66.7516 34.6615L69.3143 40.0602H66.9674ZM66.8055 35.7073L64.7014 35.472L68.7073 30.9099H71.1621L66.8055 35.7073Z" fill="black"/>
<path d="M70.377 40.0602L72.2653 30.9099H74.4232L73.1689 36.8706L78.9013 30.9099H80.9783L79.09 40.0602H76.9321L78.1999 34.1125L72.454 40.0602H70.377Z" fill="black"/>
<path d="M84.5822 34.5961H89.1276L88.7904 36.2432H84.245L84.5822 34.5961ZM83.9617 38.3608H89.1141L88.7499 40.0602H81.4395L83.3278 30.9099H90.4629L90.0987 32.6092H85.1486L83.9617 38.3608Z" fill="black"/>
<path d="M93.2695 40.0602L99.366 30.9099H101.538L103.858 40.0602H101.673L99.838 31.9556H100.702L95.6028 40.0602H93.2695ZM95.7917 38.0994L96.6819 36.4916H101.551L101.808 38.0994H95.7917Z" fill="black"/>
<path d="M105.057 40.0602L106.945 30.9099H111.504C112.529 30.9099 113.312 31.0885 113.851 31.4458C114.4 31.8031 114.674 32.3216 114.674 33.0014C114.674 33.5765 114.516 34.0602 114.202 34.4524C113.896 34.8445 113.487 35.1408 112.974 35.3412C112.462 35.5417 111.904 35.6419 111.302 35.6419L111.653 35.119C112.444 35.119 113.073 35.2977 113.541 35.655C114.017 36.0035 114.256 36.509 114.256 37.1713C114.256 37.8162 114.071 38.3565 113.703 38.7922C113.343 39.2192 112.844 39.5373 112.206 39.7465C111.567 39.9556 110.834 40.0602 110.007 40.0602H105.057ZM107.566 38.4654H110.142C110.744 38.4654 111.216 38.3565 111.558 38.1386C111.909 37.912 112.084 37.5809 112.084 37.1452C112.084 36.8053 111.954 36.5656 111.693 36.4262C111.441 36.2781 111.1 36.204 110.668 36.204H107.782L108.105 34.6615H110.56C110.938 34.6615 111.261 34.6136 111.531 34.5177C111.81 34.4219 112.021 34.2781 112.165 34.0863C112.309 33.8859 112.381 33.6463 112.381 33.3674C112.381 33.0624 112.26 32.8445 112.017 32.7138C111.774 32.5744 111.432 32.5046 110.992 32.5046H108.78L107.566 38.4654Z" fill="black"/>
<path d="M117.327 40.0602L118.932 32.1517L119.324 32.6354H115.857L116.208 30.9099H124.395L124.044 32.6354H120.497L121.09 32.1517L119.485 40.0602H117.327Z" fill="black"/>
<path d="M128.617 40.2169C127.664 40.2169 126.841 40.0514 126.149 39.7202C125.465 39.3803 124.939 38.9141 124.571 38.3215C124.202 37.7202 124.018 37.0274 124.018 36.2431C124.018 35.4588 124.157 34.7355 124.436 34.0732C124.715 33.4021 125.11 32.8226 125.623 32.3346C126.144 31.8379 126.76 31.4501 127.471 31.1712C128.19 30.8923 128.986 30.7529 129.858 30.7529C130.811 30.7529 131.629 30.9228 132.313 31.2627C133.005 31.5939 133.536 32.0601 133.904 32.6614C134.273 33.254 134.457 33.9424 134.457 34.7268C134.457 35.5111 134.318 36.2387 134.039 36.9098C133.76 37.5721 133.36 38.1516 132.839 38.6483C132.326 39.1363 131.71 39.5198 130.991 39.7986C130.281 40.0775 129.489 40.2169 128.617 40.2169ZM128.806 38.413C129.336 38.413 129.813 38.3215 130.236 38.1385C130.667 37.9468 131.031 37.6854 131.328 37.3542C131.625 37.0231 131.85 36.644 132.002 36.217C132.164 35.7812 132.245 35.3237 132.245 34.8444C132.245 34.3912 132.146 33.9947 131.949 33.6549C131.751 33.3063 131.458 33.0361 131.072 32.8444C130.694 32.6527 130.227 32.5568 129.669 32.5568C129.139 32.5568 128.662 32.6527 128.239 32.8444C127.817 33.0274 127.453 33.2845 127.147 33.6157C126.85 33.9468 126.621 34.3302 126.459 34.766C126.306 35.193 126.23 35.6461 126.23 36.1255C126.23 36.5786 126.329 36.9795 126.526 37.3281C126.733 37.6679 127.025 37.9337 127.403 38.1254C127.79 38.3172 128.257 38.413 128.806 38.413Z" fill="black"/>
<path d="M135.193 40.0602L137.082 30.9099H138.862L141.546 37.3935L140.602 37.3805L145.822 30.9099H147.697L145.822 40.0602H143.785L145.04 33.9295H145.444L141.29 39.0929H140.305L138.093 33.9164L138.484 33.9556L137.23 40.0602H135.193Z" fill="black"/>
<path d="M153.036 40.2169C152.083 40.2169 151.26 40.0514 150.568 39.7202C149.885 39.3803 149.359 38.9141 148.99 38.3215C148.621 37.7202 148.438 37.0274 148.438 36.2431C148.438 35.4588 148.576 34.7355 148.855 34.0732C149.134 33.4021 149.53 32.8226 150.042 32.3346C150.564 31.8379 151.181 31.4501 151.891 31.1712C152.61 30.8923 153.405 30.7529 154.277 30.7529C155.23 30.7529 156.049 30.9228 156.732 31.2627C157.424 31.5939 157.955 32.0601 158.324 32.6614C158.692 33.254 158.878 33.9424 158.878 34.7268C158.878 35.5111 158.738 36.2387 158.46 36.9098C158.181 37.5721 157.78 38.1516 157.258 38.6483C156.746 39.1363 156.13 39.5198 155.41 39.7986C154.7 40.0775 153.909 40.2169 153.036 40.2169ZM153.225 38.413C153.756 38.413 154.233 38.3215 154.656 38.1385C155.088 37.9468 155.451 37.6854 155.747 37.3542C156.044 37.0231 156.27 36.644 156.423 36.217C156.585 35.7812 156.665 35.3237 156.665 34.8444C156.665 34.3912 156.566 33.9947 156.368 33.6549C156.17 33.3063 155.879 33.0361 155.492 32.8444C155.115 32.6527 154.647 32.5568 154.089 32.5568C153.559 32.5568 153.082 32.6527 152.66 32.8444C152.237 33.0274 151.872 33.2845 151.566 33.6157C151.269 33.9468 151.04 34.3302 150.878 34.766C150.725 35.193 150.649 35.6461 150.649 36.1255C150.649 36.5786 150.749 36.9795 150.947 37.3281C151.154 37.6679 151.445 37.9337 151.822 38.1254C152.209 38.3172 152.677 38.413 153.225 38.413Z" fill="black"/>
<path d="M159.615 40.0602L161.503 30.9099H169.11L168.746 32.5961H163.297L162.919 34.4785H165.549C166.521 34.4785 167.262 34.6876 167.775 35.1059C168.296 35.5155 168.557 36.1125 168.557 36.8968C168.557 37.5504 168.377 38.1125 168.018 38.5831C167.658 39.0537 167.146 39.4197 166.48 39.6811C165.815 39.9338 165.014 40.0602 164.079 40.0602H159.615ZM162.097 38.4916H164.282C164.911 38.4916 165.406 38.3652 165.765 38.1125C166.125 37.851 166.305 37.4981 166.305 37.0537C166.305 36.7051 166.179 36.448 165.927 36.2824C165.684 36.1168 165.302 36.034 164.781 36.034H162.596L162.097 38.4916Z" fill="black"/>
<path d="M169.611 40.0602L171.499 30.9099H173.658L172.403 36.8706L178.135 30.9099H180.213L178.324 40.0602H176.166L177.434 34.1125L171.688 40.0602H169.611Z" fill="black"/>
<path d="M180.706 40.217C180.517 40.217 180.337 40.204 180.166 40.1778C179.995 40.1517 179.815 40.1168 179.627 40.0733L180.126 38.2955C180.243 38.3216 180.364 38.3347 180.49 38.3347C180.832 38.3347 181.128 38.2171 181.38 37.9818C181.632 37.7465 181.866 37.3587 182.081 36.8184C182.306 36.2693 182.526 35.5373 182.742 34.6223L183.659 30.9099H190.916L189.028 40.0602H186.87L188.502 32.1517L188.893 32.6354H184.725L185.292 32.1256L184.631 34.8445C184.388 35.8554 184.141 36.7051 183.889 37.3935C183.646 38.0733 183.372 38.6223 183.066 39.0406C182.769 39.4502 182.428 39.7508 182.041 39.9425C181.654 40.1255 181.209 40.217 180.706 40.217Z" fill="black"/>
<path d="M191.398 40.0602L193.286 30.9099H195.445L194.19 36.8706L199.922 30.9099H202L200.111 40.0602H197.953L199.221 34.1125L193.475 40.0602H191.398Z" fill="black"/>
</g>
<defs>
<clipPath id="clip0_5335_50200">
<rect width="202" height="52" fill="white"/>
</clipPath>
</defs>
</svg>
