<svg width="46" height="46" viewBox="0 0 46 46" fill="none" xmlns="http://www.w3.org/2000/svg">
<rect width="46" height="46" fill="#272727"/>
<path d="M25.1894 28.2584C26.3098 28.0015 27.3783 27.5523 28.3483 26.9303L28.3076 26.9547C28.6466 26.7232 28.8831 26.3675 28.9667 25.9629C29.0504 25.5583 28.9748 25.1367 28.7559 24.7874C28.537 24.4382 28.1921 24.1888 27.7942 24.0922C27.3963 23.9955 26.9768 24.0592 26.6246 24.2697L26.6316 24.2653C25.606 24.9223 24.3579 25.3117 23.0196 25.3117C21.6814 25.3117 20.4323 24.9215 19.3799 24.2487L19.4076 24.2653C19.0564 24.042 18.6321 23.9679 18.2271 24.0594C17.822 24.1509 17.4693 24.4004 17.2457 24.7535L17.2422 24.7596V24.764C17.0206 25.1187 16.9472 25.5478 17.0381 25.9571C17.129 26.3664 17.3768 26.7226 17.7273 26.9477L17.7333 26.9512C18.6709 27.5517 19.7024 27.9874 20.784 28.24L20.8516 28.2531L17.8468 31.2847C17.699 31.4312 17.5817 31.606 17.5016 31.7989C17.4216 31.9918 17.3805 32.1989 17.3808 32.408C17.3808 32.8359 17.5497 33.2234 17.8225 33.5069L17.8485 33.5332C18.1309 33.8193 18.5215 33.996 18.9529 33.996C19.3843 33.996 19.7749 33.8193 20.0573 33.5332L23.0205 30.555L25.9655 33.5349C26.1114 33.6823 26.2846 33.7993 26.4752 33.8791C26.6658 33.9589 26.8701 34 27.0765 34C27.2828 34 27.4872 33.959 27.6778 33.8793C27.8685 33.7996 28.0417 33.6827 28.1877 33.5354C28.3336 33.388 28.4494 33.2131 28.5284 33.0205C28.6074 32.828 28.6481 32.6216 28.6481 32.4132C28.6482 32.2047 28.6076 31.9983 28.5286 31.8058C28.4497 31.6132 28.334 31.4382 28.1881 31.2908L25.1894 28.2584ZM23.0196 23.8383C24.0805 23.8373 25.1173 23.5186 25.9989 22.9225C26.8805 22.3264 27.5673 21.4797 27.9726 20.4894C28.3779 19.499 28.4834 18.4096 28.2758 17.3587C28.0682 16.3079 27.5568 15.3427 26.8063 14.5854C26.0558 13.828 25.0998 13.3124 24.0592 13.1037C23.0186 12.8951 21.9401 13.0027 20.9601 13.413C19.98 13.8233 19.1424 14.5179 18.5531 15.409C17.9638 16.3 17.6493 17.3476 17.6493 18.4192V18.4244C17.6521 19.8612 18.2191 21.2383 19.2259 22.2533C20.2327 23.2683 21.5971 23.8383 23.0196 23.8383ZM23.0196 16.1759C23.4589 16.1759 23.8883 16.3074 24.2536 16.5539C24.6189 16.8003 24.9036 17.1506 25.0719 17.5604C25.2402 17.9703 25.2844 18.4213 25.1989 18.8566C25.1135 19.2918 24.9022 19.6917 24.5918 20.0056C24.2815 20.3196 23.8859 20.5336 23.4552 20.6206C23.0244 20.7076 22.5778 20.6637 22.1718 20.4944C21.7658 20.325 21.4185 20.0379 21.174 19.6694C20.9294 19.3008 20.7985 18.8672 20.7979 18.4235V18.4218C20.7979 17.8264 21.0319 17.2555 21.4485 16.8343C21.8651 16.4132 22.4302 16.1764 23.0196 16.1759Z" fill="#D4D4D4"/>
</svg>
