<svg width="46" height="41" viewBox="0 0 46 41" fill="none" xmlns="http://www.w3.org/2000/svg">
<path d="M35.7612 37.436L30.9828 39.9015C30.841 39.9742 30.6815 40.0067 30.5221 39.9952C30.3626 39.9838 30.2096 39.929 30.0799 39.8368C29.9503 39.7447 29.8493 39.6189 29.788 39.4734C29.7268 39.328 29.7078 39.1687 29.7332 39.0133L30.6462 33.7897L26.7809 30.0914C26.6655 29.9815 26.5838 29.842 26.5451 29.6886C26.5064 29.5352 26.5123 29.3742 26.5621 29.224C26.6119 29.0738 26.7035 28.9403 26.8266 28.8389C26.9497 28.7376 27.0993 28.6723 27.2583 28.6506L32.5998 27.888L34.989 23.1367C35.0605 22.9952 35.1706 22.8761 35.307 22.7929C35.4434 22.7097 35.6007 22.6656 35.7612 22.6656C35.9217 22.6656 36.079 22.7097 36.2154 22.7929C36.3518 22.8761 36.462 22.9952 36.5334 23.1367L38.9226 27.888L44.2642 28.6506C44.4227 28.6731 44.5716 28.7387 44.6942 28.8402C44.8167 28.9417 44.908 29.0749 44.9577 29.2248C45.0073 29.3748 45.0134 29.5354 44.9752 29.6885C44.937 29.8416 44.8561 29.9812 44.7416 30.0914L40.8762 33.7897L41.787 39.0111C41.8143 39.1668 41.7968 39.3269 41.7363 39.4733C41.6759 39.6197 41.575 39.7464 41.4451 39.8392C41.3152 39.9319 41.1615 39.9869 41.0014 39.9979C40.8413 40.009 40.6813 39.9756 40.5396 39.9015L35.7612 37.436Z" stroke="#FF6915" stroke-width="1.6" stroke-linecap="round" stroke-linejoin="round"/>
<path d="M10.2413 37.436L5.46296 39.9015C5.32116 39.9742 5.16163 40.0067 5.00219 39.9952C4.84276 39.9838 4.68968 39.929 4.56006 39.8368C4.43045 39.7447 4.32938 39.6189 4.26816 39.4734C4.20694 39.328 4.18797 39.1687 4.21337 39.0133L5.12636 33.7897L1.26098 30.0914C1.14561 29.9815 1.06392 29.842 1.02524 29.6886C0.986553 29.5352 0.992439 29.3742 1.04222 29.224C1.092 29.0738 1.18367 28.9403 1.30677 28.8389C1.42986 28.7376 1.57943 28.6723 1.73838 28.6506L7.07995 27.888L9.46914 23.1367C9.54059 22.9952 9.65072 22.8761 9.78714 22.7929C9.92356 22.7097 10.0809 22.6656 10.2413 22.6656C10.4018 22.6656 10.5591 22.7097 10.6955 22.7929C10.832 22.8761 10.9421 22.9952 11.0135 23.1367L13.4027 27.888L18.7443 28.6506C18.9028 28.6731 19.0517 28.7387 19.1743 28.8402C19.2968 28.9417 19.3881 29.0749 19.4378 29.2248C19.4875 29.3748 19.4936 29.5354 19.4554 29.6885C19.4172 29.8416 19.3362 29.9812 19.2217 30.0914L15.3563 33.7897L16.2671 39.0111C16.2944 39.1668 16.2769 39.3269 16.2165 39.4733C16.156 39.6197 16.0551 39.7464 15.9252 39.8392C15.7953 39.9319 15.6416 39.9869 15.4815 39.9979C15.3215 40.009 15.1615 39.9756 15.0197 39.9015L10.2413 37.436Z" stroke="#FF6915" stroke-width="1.6" stroke-linecap="round" stroke-linejoin="round"/>
<path d="M23.0013 15.7704L18.2229 18.236C18.0811 18.3087 17.9216 18.3411 17.7621 18.3297C17.6027 18.3182 17.4496 18.2634 17.32 18.1712C17.1904 18.0791 17.0893 17.9533 17.0281 17.8079C16.9669 17.6624 16.9479 17.5031 16.9733 17.3477L17.8863 12.1241L14.0209 8.4258C13.9055 8.31596 13.8239 8.17639 13.7852 8.02301C13.7465 7.86964 13.7524 7.70865 13.8022 7.55841C13.8519 7.40817 13.9436 7.27475 14.0667 7.17336C14.1898 7.07198 14.3394 7.00672 14.4983 6.98504L19.8399 6.22241L22.2291 1.47115C22.3005 1.32964 22.4107 1.21057 22.5471 1.12733C22.6835 1.0441 22.8408 1 23.0013 1C23.1618 1 23.3191 1.0441 23.4555 1.12733C23.5919 1.21057 23.702 1.32964 23.7735 1.47115L26.1627 6.22241L31.5042 6.98504C31.6627 7.00749 31.8117 7.07317 31.9342 7.17465C32.0568 7.27613 32.1481 7.40936 32.1977 7.55926C32.2474 7.70917 32.2535 7.86978 32.2153 8.02291C32.1771 8.17605 32.0962 8.31561 31.9816 8.4258L28.1163 12.1241L29.027 17.3455C29.0544 17.5012 29.0368 17.6614 28.9764 17.8077C28.916 17.9541 28.8151 18.0809 28.6851 18.1736C28.5552 18.2663 28.4015 18.3213 28.2415 18.3324C28.0814 18.3434 27.9214 18.31 27.7797 18.236L23.0013 15.7704Z" stroke="#FF6915" stroke-width="1.6" stroke-linecap="round" stroke-linejoin="round"/>
</svg>
