<svg width="42" height="42" viewBox="0 0 42 42" fill="none" xmlns="http://www.w3.org/2000/svg">
<path d="M39.5625 36.8125V39.5625C39.5625 40.3188 38.9438 40.9375 38.1875 40.9375H36.8125C36.0562 40.9375 35.4375 40.3188 35.4375 39.5625V36.8125" stroke="#FF6915" stroke-width="1.4" stroke-miterlimit="10" stroke-linecap="round" stroke-linejoin="round"/>
<path d="M40.9375 36.8125H21.6875" stroke="#FF6915" stroke-width="1.4" stroke-miterlimit="10" stroke-linecap="round" stroke-linejoin="round"/>
<path d="M25.8125 27.1875C37.5 27.1875 40.9375 27.9891 40.9375 31.3125V32.946" stroke="#FF6915" stroke-width="1.4" stroke-miterlimit="10" stroke-linecap="round" stroke-linejoin="round"/>
<path d="M35.4375 34.0625V32.6875C35.4375 31.9312 36.0562 31.3125 36.8125 31.3125H40.9375V34.0625H35.4375Z" stroke="#FF6915" stroke-width="1.4" stroke-miterlimit="10" stroke-linecap="round" stroke-linejoin="round"/>
<path d="M24.4375 31.3125H29.9375C31.4555 31.3125 32.6875 32.5445 32.6875 34.0625" stroke="#FF6915" stroke-width="1.4" stroke-miterlimit="10" stroke-linecap="round" stroke-linejoin="round"/>
<path d="M38.2828 28.1582L35.878 20.9312C35.6291 20.2025 34.8316 19.5287 34.0753 19.4325C33.0097 19.2977 31.3625 19.1286 29.3398 19.0269" stroke="#FF6915" stroke-width="1.4" stroke-miterlimit="10" stroke-linecap="round" stroke-linejoin="round"/>
<path d="M10.6036 1.54375C11.7243 1.22888 12.9054 1.0625 14.125 1.0625C21.3369 1.0625 27.1875 6.91175 27.1875 14.125C27.1875 25.2116 14.125 40.9375 14.125 40.9375C14.125 40.9375 1.0625 25.2116 1.0625 14.125C1.0625 10.4166 2.60938 7.06712 5.09263 4.69112" stroke="#FF6915" stroke-width="1.4" stroke-miterlimit="10" stroke-linecap="round" stroke-linejoin="round"/>
<path d="M14.125 21.6875C18.3017 21.6875 21.6875 18.3017 21.6875 14.125C21.6875 9.94835 18.3017 6.5625 14.125 6.5625C9.94835 6.5625 6.5625 9.94835 6.5625 14.125C6.5625 18.3017 9.94835 21.6875 14.125 21.6875Z" stroke="#FF6915" stroke-width="1.4" stroke-miterlimit="10" stroke-linecap="round" stroke-linejoin="round"/>
<path d="M3.8125 40.9375H14.125" stroke="#FF6915" stroke-width="1.4" stroke-miterlimit="10" stroke-linecap="round" stroke-linejoin="round"/>
<path d="M1.2 40.9375H1.0625" stroke="#FF6915" stroke-width="1.4" stroke-miterlimit="10" stroke-linecap="round" stroke-linejoin="round"/>
<path d="M21.6875 40.9375H36.8125" stroke="#FF6915" stroke-width="1.4" stroke-miterlimit="10" stroke-linecap="round" stroke-linejoin="round"/>
<path d="M1.2 40.9375H1.0625" stroke="#FF6915" stroke-width="1.4" stroke-miterlimit="10" stroke-linecap="round" stroke-linejoin="round"/>
</svg>
