<svg width="46" height="46" viewBox="0 0 46 46" fill="none" xmlns="http://www.w3.org/2000/svg">
<circle cx="23" cy="23" r="23" transform="matrix(-1 0 0 1 46 0)" fill="#FF6915"/>
<path d="M24.0607 15.4992C23.4749 14.9135 22.5251 14.9135 21.9393 15.4992L12.3934 25.0452C11.8076 25.631 11.8076 26.5807 12.3934 27.1665C12.9792 27.7523 13.9289 27.7523 14.5147 27.1665L23 18.6812L31.4853 27.1665C32.0711 27.7523 33.0208 27.7523 33.6066 27.1665C34.1924 26.5807 34.1924 25.631 33.6066 25.0452L24.0607 15.4992ZM24.5 18.3999L24.5 16.5599L21.5 16.5599L21.5 18.3999L24.5 18.3999Z" fill="white"/>
</svg>
