<svg width="46" height="46" viewBox="0 0 46 46" fill="none" xmlns="http://www.w3.org/2000/svg">
<rect width="46" height="46" fill="#272727"/>
<path opacity="0.8" d="M34.795 27.7032C34.7332 27.6086 34.3508 26.8488 32.5106 25.2871C30.5842 23.6518 30.843 23.9173 33.1633 21.0897C34.5765 19.3676 35.1415 18.316 34.9646 17.8664C34.7964 17.4379 33.757 17.5509 33.757 17.5509L30.301 17.5693C30.301 17.5693 30.0451 17.5378 29.8539 17.6416C29.6685 17.7442 29.5492 17.9808 29.5492 17.9808C29.5492 17.9808 29.0014 19.3137 28.2711 20.4469C26.7315 22.8381 26.1147 22.9643 25.8632 22.8157C25.278 22.47 25.4247 21.4249 25.4247 20.6835C25.4247 18.3659 25.8085 17.3997 24.6757 17.15C24.299 17.0672 24.023 17.0119 23.0613 17.0027C21.8278 16.9909 20.7827 17.0067 20.1918 17.2709C19.7979 17.4471 19.4946 17.8401 19.68 17.8625C19.9086 17.8901 20.4261 17.99 20.7007 18.3318C21.0558 18.7721 21.0429 19.7633 21.0429 19.7633C21.0429 19.7633 21.247 22.491 20.567 22.8302C20.0998 23.0629 19.4601 22.5883 18.0871 20.418C17.3842 19.3072 16.8522 18.078 16.8522 18.078C16.8522 18.078 16.7502 17.8493 16.5676 17.7271C16.3462 17.5785 16.0357 17.5312 16.0357 17.5312L12.7493 17.5496C12.7493 17.5496 12.2562 17.5627 12.0751 17.7586C11.9141 17.9334 12.0621 18.2936 12.0621 18.2936C12.0621 18.2936 14.6355 23.7977 17.548 26.5727C20.2205 29.1164 23.2539 28.9494 23.2539 28.9494H24.6282C24.6282 28.9494 25.0437 28.9074 25.255 28.6984C25.4506 28.5064 25.4434 28.1463 25.4434 28.1463C25.4434 28.1463 25.4161 26.4597 26.2729 26.2112C27.1167 25.9667 28.2007 27.8413 29.3493 28.563C30.2177 29.1085 30.8775 28.9889 30.8775 28.9889L33.9497 28.9494C33.9497 28.9494 35.5569 28.8587 34.795 27.7032Z" fill="white"/>
</svg>
